<?xml version="1.0" encoding="UTF-8"?>
<!DOCTYPE svg PUBLIC "-//W3C//DTD SVG 1.1//EN" "http://www.w3.org/Graphics/SVG/1.1/DTD/svg11.dtd">
<!-- Creator: CorelDRAW X8 -->
<svg xmlns="http://www.w3.org/2000/svg" xml:space="preserve" width="100px" height="100px" version="1.1" style="shape-rendering:geometricPrecision; text-rendering:geometricPrecision; image-rendering:optimizeQuality; fill-rule:evenodd; clip-rule:evenodd"
viewBox="0 0 3579 3579"
 xmlns:xlink="http://www.w3.org/1999/xlink">
 <defs>
  <style type="text/css">
   <![CDATA[
    .fil0 {fill:steelblue}
    .fil1 {fill:white;fill-rule:nonzero}
   ]]>
  </style>
 </defs>
 <g id="Camada_x0020_1">
  <metadata id="CorelCorpID_0Corel-Layer"/>
  <path class="fil0" d="M1790 0c988,0 1789,801 1789,1790 0,988 -801,1789 -1789,1789 -989,0 -1790,-801 -1790,-1789 0,-989 801,-1790 1790,-1790z"/>
  <path class="fil1" d="M2333 715c15,0 29,9 42,27 12,18 19,36 20,54 0,13 -5,25 -15,34 -113,82 -194,155 -243,218 -48,63 -72,134 -72,214 0,46 13,84 39,113 25,28 68,54 128,77 109,45 163,133 163,263 0,83 -27,153 -83,210 -55,58 -136,87 -242,87 -117,0 -209,-43 -279,-128 -70,-85 -104,-192 -104,-321 0,-146 36,-284 109,-411 73,-127 172,-231 297,-314 125,-82 205,-123 240,-123zm-886 0c15,0 30,9 42,27 12,18 19,36 21,54 0,13 -6,25 -16,34 -113,82 -193,155 -242,218 -49,63 -73,134 -73,214 0,46 13,84 39,113 26,28 68,54 128,77 109,45 164,133 164,263 0,83 -28,153 -84,210 -55,58 -136,87 -242,87 -116,0 -209,-43 -279,-128 -70,-85 -104,-192 -104,-321 0,-146 36,-284 109,-411 73,-127 173,-231 297,-314 126,-82 206,-123 240,-123z"/>
 </g>
</svg>
