<?xml version="1.0" encoding="UTF-8"?>
<!DOCTYPE svg PUBLIC "-//W3C//DTD SVG 1.1//EN" "http://www.w3.org/Graphics/SVG/1.1/DTD/svg11.dtd">
<!-- Creator: CorelDRAW X8 -->
<svg xmlns="http://www.w3.org/2000/svg" xml:space="preserve" width="198px" height="25px" version="1.1" style="shape-rendering:geometricPrecision; text-rendering:geometricPrecision; image-rendering:optimizeQuality; fill-rule:evenodd; clip-rule:evenodd"
viewBox="0 0 20510 2581"
 xmlns:xlink="http://www.w3.org/1999/xlink">
 <defs>
  <style type="text/css">
   <![CDATA[
    .fil0 {fill:steelblue;fill-rule:nonzero}
   ]]>
  </style>
 </defs>
 <g id="Camada_x0020_1">
  <metadata id="CorelCorpID_0Corel-Layer"/>
  <path class="fil0" d="M0 585l1278 0 0 434 -759 0 0 374 651 0 0 434 -651 0 0 718 -519 0 0 -1960zm1779 1996c-91,0 -171,-21 -240,-64 -69,-42 -122,-98 -158,-168 -36,-71 -54,-148 -54,-233 0,-158 64,-282 194,-370 130,-89 338,-148 626,-178 -6,-55 -27,-94 -61,-119 -34,-25 -84,-38 -150,-38 -53,0 -109,10 -169,30 -61,20 -131,52 -211,97l-181 -338c221,-133 442,-199 663,-199 418,0 627,235 627,705l0 839 -422 0 -36 -145 -12 0c-135,120 -274,181 -416,181zm181 -398c38,0 71,-9 98,-26 27,-17 56,-43 89,-77l0 -205c-217,32 -326,99 -326,199 0,34 12,61 36,80 24,19 58,29 103,29zm1441 398c-167,0 -286,-50 -358,-148 -71,-99 -107,-238 -107,-419l0 -1568 519 0 0 1586c0,46 9,80 26,101 17,21 36,32 58,32 21,0 39,-2 55,-6l60 380c-62,28 -147,42 -253,42zm759 0c-90,0 -170,-21 -239,-64 -70,-42 -122,-98 -158,-168 -37,-71 -55,-148 -55,-233 0,-158 65,-282 195,-370 129,-89 338,-148 625,-178 -6,-55 -26,-94 -60,-119 -34,-25 -84,-38 -151,-38 -52,0 -108,10 -169,30 -60,20 -130,52 -211,97l-181 -338c222,-133 443,-199 664,-199 418,0 627,235 627,705l0 839 -422 0 -36 -145 -12 0c-135,120 -274,181 -417,181zm181 -398c39,0 71,-9 98,-26 27,-17 57,-43 89,-77l0 -205c-217,32 -325,99 -325,199 0,34 12,61 36,80 24,19 58,29 102,29zm-66 -1616l476 -567 350 344 -573 476 -253 -253zm1725 2014c-145,0 -275,-32 -389,-95 -115,-64 -205,-155 -272,-273 -66,-119 -99,-259 -99,-422 0,-161 36,-301 110,-421 73,-119 172,-211 295,-274 124,-63 258,-95 403,-95 169,0 315,52 440,157l-241 331c-59,-48 -115,-72 -169,-72 -97,0 -172,34 -226,101 -54,67 -82,158 -82,273 0,112 28,203 83,271 56,68 124,103 207,103 74,0 155,-32 241,-97l199 338c-70,62 -149,107 -237,134 -87,27 -175,41 -263,41zm675 -1544l518 0 0 1508 -518 0 0 -1508zm259 -187c-80,0 -147,-24 -199,-72 -52,-48 -78,-111 -78,-187 0,-76 26,-139 78,-187 52,-48 119,-72 199,-72 81,0 147,24 199,72 52,48 79,111 79,187 0,76 -27,139 -79,187 -52,48 -118,72 -199,72zm935 1731c-91,0 -171,-21 -240,-64 -69,-42 -122,-98 -158,-168 -36,-71 -54,-148 -54,-233 0,-158 64,-282 194,-370 130,-89 338,-148 626,-178 -6,-55 -27,-94 -61,-119 -34,-25 -84,-38 -150,-38 -53,0 -109,10 -169,30 -61,20 -131,52 -211,97l-181 -338c221,-133 442,-199 663,-199 418,0 627,235 627,705l0 839 -422 0 -36 -145 -12 0c-135,120 -274,181 -416,181zm181 -398c38,0 70,-9 98,-26 27,-17 56,-43 89,-77l0 -205c-218,32 -326,99 -326,199 0,34 12,61 36,80 24,19 58,29 103,29zm1441 398c-97,0 -199,-20 -306,-59 -108,-39 -201,-90 -279,-152l229 -320c137,101 259,151 368,151 54,0 93,-8 116,-23 23,-15 35,-37 35,-68 0,-30 -17,-54 -49,-72 -32,-18 -87,-42 -166,-72 -10,-4 -21,-9 -33,-14 -12,-5 -26,-10 -42,-16 -253,-101 -380,-250 -380,-447 0,-146 55,-264 165,-354 109,-89 253,-134 432,-134 113,0 213,18 302,54 88,36 173,85 253,145l-229 307c-117,-84 -219,-126 -308,-126 -88,0 -132,28 -132,84 0,30 16,54 48,71 32,17 86,40 163,68 16,4 40,12 72,24 113,42 205,98 277,166 73,68 109,164 109,286 0,147 -56,267 -169,361 -112,93 -271,140 -476,140z"/>
  <path class="fil0" d="M10374 555l1062 0 0 84 -965 0 0 838 814 0 0 85 -814 0 0 983 -97 0 0 -1990zm1411 2026c-120,0 -220,-32 -298,-97 -79,-64 -118,-162 -118,-292 0,-159 75,-281 225,-365 150,-84 390,-145 722,-181 4,-141 -20,-258 -72,-353 -53,-94 -147,-141 -284,-141 -92,0 -179,17 -261,52 -81,36 -151,76 -209,123l-48 -73c64,-48 142,-91 233,-129 92,-39 189,-58 291,-58 157,0 270,50 338,149 68,100 102,231 102,394l0 935 -78 0 -12 -193 -6 0c-191,152 -366,229 -525,229zm6 -85c85,0 168,-20 251,-60 82,-40 173,-103 274,-187l0 -525c-310,37 -529,91 -657,165 -129,73 -193,173 -193,300 0,104 30,182 92,232 61,50 139,75 233,75zm1086 85c-97,0 -145,-65 -145,-193l0 -2020 90 0 0 2038c0,30 6,53 17,68 11,15 26,22 44,22 16,0 34,-2 54,-6l18 79c-32,8 -58,12 -78,12zm645 0c-121,0 -220,-32 -299,-97 -78,-64 -117,-162 -117,-292 0,-159 75,-281 224,-365 150,-84 391,-145 722,-181 4,-141 -20,-258 -72,-353 -52,-94 -147,-141 -283,-141 -93,0 -180,17 -261,52 -81,36 -151,76 -210,123l-48 -73c64,-48 142,-91 234,-129 91,-39 188,-58 291,-58 157,0 269,50 337,149 69,100 103,231 103,394l0 935 -78 0 -13 -193 -6 0c-191,152 -365,229 -524,229zm6 -85c84,0 168,-20 250,-60 83,-40 174,-103 274,-187l0 -525c-309,37 -528,91 -657,165 -128,73 -193,173 -193,300 0,104 31,182 92,232 62,50 139,75 234,75zm1459 85c-123,0 -233,-30 -332,-91 -98,-60 -175,-147 -230,-261 -55,-113 -83,-247 -83,-402 0,-155 29,-290 87,-405 59,-116 137,-204 235,-264 99,-61 206,-91 323,-91 91,0 169,17 235,50 67,33 129,77 187,131l-60 66c-117,-108 -237,-162 -362,-162 -102,0 -195,28 -279,86 -83,57 -149,137 -197,239 -49,103 -73,219 -73,350 0,131 23,247 68,348 45,102 110,181 193,237 84,56 180,84 288,84 145,0 279,-58 404,-175l54 67c-142,128 -295,193 -458,193zm615 -1478l91 0 0 1442 -91 0 0 -1442zm48 -367c-28,0 -51,-10 -69,-31 -18,-20 -27,-46 -27,-78 0,-30 9,-55 27,-74 18,-19 41,-28 69,-28 28,0 52,9 70,28 18,19 27,44 27,74 0,32 -9,58 -27,78 -18,21 -42,31 -70,31zm923 1845c-117,0 -224,-30 -321,-91 -98,-60 -175,-147 -232,-262 -58,-115 -86,-248 -86,-401 0,-155 28,-290 86,-405 57,-116 134,-204 232,-264 97,-61 204,-91 321,-91 116,0 223,30 321,91 97,60 175,148 232,264 57,115 86,250 86,405 0,153 -29,286 -86,401 -57,115 -135,202 -232,262 -98,61 -205,91 -321,91zm0 -85c102,0 195,-28 277,-84 83,-56 147,-135 195,-237 47,-101 71,-217 71,-348 0,-131 -24,-247 -71,-350 -48,-102 -112,-182 -195,-239 -82,-58 -175,-86 -277,-86 -103,0 -195,28 -277,86 -83,57 -148,137 -195,239 -47,103 -71,219 -71,350 0,131 24,247 71,348 47,102 112,181 195,237 82,56 174,84 277,84zm1218 85c-103,0 -198,-18 -287,-55 -88,-36 -167,-84 -238,-144l61 -73c70,61 141,107 214,139 72,32 157,48 256,48 114,0 204,-29 270,-89 65,-59 98,-132 98,-218 0,-87 -33,-154 -98,-204 -66,-49 -154,-94 -264,-134 -103,-36 -184,-69 -246,-98 -61,-29 -114,-69 -158,-120 -44,-52 -66,-116 -66,-192 0,-104 40,-193 120,-265 81,-73 191,-109 332,-109 70,0 141,13 212,39 72,27 134,62 186,106l-54 72c-57,-42 -112,-75 -166,-98 -55,-23 -116,-34 -184,-34 -113,0 -199,27 -259,83 -61,55 -91,122 -91,200 0,54 16,100 48,137 32,37 71,68 116,91 46,23 107,49 186,80 18,8 77,30 178,66 100,36 176,85 227,148 52,62 77,137 77,226 0,72 -18,138 -56,199 -37,60 -91,108 -162,144 -72,37 -156,55 -252,55zm965 0c-121,0 -220,-32 -299,-97 -78,-64 -117,-162 -117,-292 0,-159 74,-281 224,-365 150,-84 391,-145 722,-181 4,-141 -20,-258 -72,-353 -52,-94 -147,-141 -283,-141 -93,0 -180,17 -261,52 -82,36 -152,76 -210,123l-48 -73c64,-48 142,-91 234,-129 91,-39 188,-58 291,-58 156,0 269,50 337,149 69,100 103,231 103,394l0 935 -79 0 -12 -193 -6 0c-191,152 -366,229 -524,229zm6 -85c84,0 167,-20 250,-60 82,-40 174,-103 274,-187l0 -525c-309,37 -528,91 -657,165 -129,73 -193,173 -193,300 0,104 31,182 92,232 61,50 139,75 234,75zm1278 85c-103,0 -198,-18 -286,-55 -89,-36 -168,-84 -239,-144l61 -73c70,61 141,107 214,139 72,32 158,48 256,48 115,0 205,-29 270,-89 65,-59 98,-132 98,-218 0,-87 -33,-154 -98,-204 -65,-49 -153,-94 -264,-134 -102,-36 -184,-69 -246,-98 -61,-29 -114,-69 -158,-120 -44,-52 -66,-116 -66,-192 0,-104 40,-193 120,-265 81,-73 191,-109 332,-109 70,0 141,13 212,39 72,27 134,62 186,106l-54 72c-57,-42 -112,-75 -166,-98 -54,-23 -116,-34 -184,-34 -113,0 -199,27 -259,83 -61,55 -91,122 -91,200 0,54 16,100 48,137 33,37 71,68 116,91 46,23 108,49 186,80 18,8 77,30 178,66 100,36 176,85 227,148 52,62 77,137 77,226 0,72 -18,138 -55,199 -38,60 -92,108 -163,144 -72,37 -156,55 -252,55z"/>
 </g>
</svg>
