<?xml version="1.0" encoding="UTF-8"?>
<!DOCTYPE svg PUBLIC "-//W3C//DTD SVG 1.1//EN" "http://www.w3.org/Graphics/SVG/1.1/DTD/svg11.dtd">
<!-- Creator: CorelDRAW X8 -->
<svg xmlns="http://www.w3.org/2000/svg" xml:space="preserve" width="100px" height="100px" version="1.1" style="shape-rendering:geometricPrecision; text-rendering:geometricPrecision; image-rendering:optimizeQuality; fill-rule:evenodd; clip-rule:evenodd"
viewBox="0 0 11120 11120"
 xmlns:xlink="http://www.w3.org/1999/xlink">
 <defs>
  <style type="text/css">
   <![CDATA[
    .fil0 {fill:steelblue}
    .fil1 {fill:white;fill-rule:nonzero}
   ]]>
  </style>
 </defs>
 <g id="Camada_x0020_1">
  <metadata id="CorelCorpID_0Corel-Layer"/>
  <path class="fil0" d="M5560 0c3070,0 5560,2489 5560,5560 0,3070 -2490,5560 -5560,5560 -3071,0 -5560,-2490 -5560,-5560 0,-3071 2489,-5560 5560,-5560z"/>
  <path class="fil1" d="M2151 6408c0,-960 0,-1921 0,-2881 0,-530 430,-961 960,-961 1633,0 3265,0 4898,0 530,0 960,431 960,961 0,960 0,1921 0,2881 0,530 -430,960 -960,960 -987,0 -1974,0 -2961,0 -522,395 -1044,790 -1567,1185 11,-395 22,-790 33,-1185 -134,0 -269,0 -403,0 -530,0 -960,-430 -960,-960z"/>
 </g>
</svg>
