<?xml version="1.0" encoding="UTF-8"?>
<!DOCTYPE svg PUBLIC "-//W3C//DTD SVG 1.1//EN" "http://www.w3.org/Graphics/SVG/1.1/DTD/svg11.dtd">
<!-- Creator: CorelDRAW X8 -->
<svg xmlns="http://www.w3.org/2000/svg" xml:space="preserve" width="1080px" height="1080px" version="1.1" style="shape-rendering:geometricPrecision; text-rendering:geometricPrecision; image-rendering:optimizeQuality; fill-rule:evenodd; clip-rule:evenodd"
viewBox="0 0 1080 1080"
 xmlns:xlink="http://www.w3.org/1999/xlink">
 <defs>
  <style type="text/css">
   <![CDATA[
    .str2 {stroke:black;stroke-width:10.0004;stroke-linecap:round;stroke-linejoin:round}
    .str0 {stroke:#7F0000;stroke-width:10.0004;stroke-linecap:round;stroke-linejoin:round}
    .str1 {stroke:#99CCCC;stroke-width:14.178;stroke-linecap:round;stroke-linejoin:round}
    .fil1 {fill:none}
    .fil5 {fill:black}
    .fil3 {fill:#6699FF}
    .fil0 {fill:#7F0000}
    .fil2 {fill:#99CCCC}
    .fil4 {fill:fuchsia}
   ]]>
  </style>
 </defs>
 <g id="Camada_x0020_1">
  <metadata id="CorelCorpID_0Corel-Layer"/>
  <g id="_546304489232">
   <path class="fil0" d="M594 429c-1,8 4,15 11,17 4,1 8,0 11,-2l0 0 26 -14 -17 -24c-2,-3 -5,-5 -9,-6 -8,-2 -15,3 -17,11 -1,3 0,7 1,10 -3,2 -5,5 -6,8l0 0z"/>
   <polygon class="fil0 str0" points="481,396 481,394 597,419 597,421 "/>
   <path class="fil1 str1" d="M356 7c88,226 -27,250 -108,306l108 -306z"/>
   <path class="fil2" d="M254 81c8,-1 16,4 25,6 7,1 14,0 21,3 8,4 14,10 11,17 -3,6 6,9 5,15 0,7 -8,16 -7,25 0,6 8,10 6,15 0,2 -2,1 -3,2 -1,3 2,5 1,8 0,1 -3,2 -3,2 0,0 2,2 1,3 0,1 -1,0 -2,1 -2,2 0,6 -2,8 -2,2 -5,3 -8,4 -6,1 -12,-2 -18,-1 -5,2 -11,5 -14,9 -1,3 -1,10 -1,10 1,4 2,12 9,22 0,0 5,6 9,7 18,3 32,3 52,3 5,0 7,-7 12,-8 5,0 13,3 12,8 0,0 -3,14 -9,18 -5,3 -12,2 -18,2 -19,2 -40,6 -57,3 -13,-2 -34,-20 -34,-20 -11,11 -25,21 -42,27 0,0 8,39 1,57 -7,18 -31,24 -38,42 -1,4 -1,9 0,13 2,4 4,8 7,12 2,3 6,4 7,7 0,1 1,3 0,5 -5,4 -13,2 -19,-1 -6,-4 -7,-12 -11,-17 -5,-6 -15,-8 -16,-16 0,-3 3,-5 5,-8 3,-3 8,-5 10,-9 3,-6 4,-19 4,-19 0,0 6,-19 15,-21 -1,-20 -21,-37 -18,-47 1,-1 -2,-1 -3,-1 -20,0 -32,9 -48,5 -5,-1 -10,-4 -13,-8 -5,-9 -14,-13 -21,-20 -5,-5 -7,-13 -13,-15 -3,-1 -6,2 -9,3 -3,1 -7,1 -10,2 -4,2 -6,6 -10,7 -1,0 -2,0 -3,-1 -4,-3 -7,-9 -6,-14 3,-9 16,-12 23,-17 5,-4 8,-12 14,-11 6,0 11,1 13,12 0,0 9,4 14,6 9,2 17,7 23,16 0,0 25,0 32,-7 0,0 7,-17 13,-18 3,-1 -5,0 -7,-1 -2,-1 -2,-4 -3,-5 -1,-1 -3,1 -4,0 -3,-1 -2,-6 -4,-7 -2,-1 -4,0 -5,-1 -2,-2 0,-5 -1,-7 -3,-3 -8,-3 -10,-6 -1,-2 0,-4 1,-5 2,-3 6,-1 9,-3 7,-6 8,-18 15,-24 5,-3 16,-6 16,-6 0,0 -11,-15 -11,-24 0,-5 -3,-23 5,-29 2,-1 4,2 7,1 4,-1 1,-6 4,-8 2,-1 6,2 8,0 3,-2 2,-7 5,-9 1,-1 4,1 5,0 2,-6 2,-7 6,-8 2,0 4,4 6,3 1,0 6,-13 11,-9 3,2 5,12 3,21 -3,20 -2,31 0,46 3,19 11,46 30,49 3,0 7,-4 7,-7 0,-6 -8,-10 -12,-14 -2,-2 -5,-3 -7,-6 -5,-11 -5,-24 -2,-35 1,-5 5,-10 9,-13 3,-3 9,-3 11,-7 3,-7 12,-11 19,-12l0 0z"/>
   <path class="fil3" d="M820 627l-1 -11 -4 -4 -16 -10 -2 0c0,0 -4,-4 -3,-6 0,-2 3,-4 3,-4l2 -3 -1 -7 5 -2 -4 -4 3 -5 -6 -2c0,0 0,-4 1,-5 2,-5 12,-10 12,-10l0 -5 10 -21 -3 -5c0,0 21,-11 32,-12 8,-1 16,0 23,3 7,3 12,8 16,14 4,5 7,12 9,18 2,5 3,11 2,17 -1,6 -9,17 -9,17l-11 20 -58 27z"/>
   <path class="fil3" d="M879 600l10 18 -3 0 19 33 9 21 1 35 -1 6 4 29 -2 16 6 3 1 9 4 9 -3 16 3 18 15 27 10 63 -28 6 -98 14 -36 -7 -7 -35 -2 -33 0 -33 -14 -18 -3 -31 -18 -19 5 -17 -23 -15 -3 -8c-15,-4 -21,-14 -19,-22l2 -7c6,13 8,20 14,20l13 0 -1 -15c0,0 -15,-8 -15,-12 0,-3 10,1 15,2 13,4 30,25 30,25l14 11 35 -66 -4 -16 61 -30 9 3z"/>
   <polygon class="fil3" points="779,816 763,809 757,815 706,821 690,824 672,841 671,869 671,891 677,913 683,996 681,1013 681,1024 693,1026 691,1032 669,1040 649,1045 640,1046 635,1058 649,1064 758,1061 759,1053 759,1039 750,1021 745,978 738,968 742,948 735,906 735,895 731,892 732,884 826,904 829,917 828,927 830,1017 835,1050 853,1067 894,1068 915,1059 939,1049 993,1043 1015,1034 1020,1034 1019,1042 1012,1046 1009,1053 1025,1060 1044,1054 1057,1044 1066,1030 1062,1014 1062,1001 1067,994 1069,968 1064,959 1056,955 1042,959 1030,970 1019,973 1005,973 984,983 964,984 948,990 927,994 906,1007 898,1004 920,910 "/>
   <polygon class="fil4" points="605,799 593,848 589,863 586,899 578,936 571,983 570,1001 577,1033 580,1049 593,1052 603,1058 606,1067 589,1073 564,1071 558,1051 543,1039 540,1037 535,1056 536,1072 531,1072 523,1032 522,1020 536,993 538,969 542,927 540,913 524,932 501,967 487,995 483,1032 483,1047 495,1056 500,1065 497,1071 476,1070 465,1064 458,1055 456,1039 445,1018 438,1030 427,1050 424,1049 430,1016 433,997 454,981 469,963 482,923 500,887 531,853 537,831 533,802 "/>
   <path class="fil4" d="M605 607l81 47 8 2 14 11c15,6 26,12 18,21l0 9 -6 3 -6 -15 -12 -7 -4 1 -4 11 6 5c2,4 4,3 -5,2 0,0 -7,-3 -9,-5 -4,-5 -4,-17 -4,-17l-12 -5 -76 -26 11 -37z"/>
   <path class="fil4" d="M640 798l-115 21c0,0 -11,-56 -20,-83 -4,-11 -11,-21 -14,-32 -4,-12 -4,-23 -4,-35 0,-8 1,-16 2,-23 2,-9 9,-26 9,-26l-10 -22 -11 -17 -6 -23 -2 22 -1 -6 -4 9 -1 -8 -3 10 -3 -10 -2 5 -8 -51 6 -46 12 -29 14 -26c0,0 6,-33 14,-47 4,-8 16,-19 16,-19 0,0 12,-1 18,-1 4,1 8,2 12,4 8,3 18,4 24,10 5,5 8,18 8,18l-4 2 5 19 -7 10 2 18 -7 0 1 4 -6 2 3 3 -5 1 -2 8 3 13 0 21 11 8 5 21 0 13 8 12 6 0 8 2 17 24 0 12 -9 7 15 65 -6 10 21 99 10 31z"/>
   <g>
    <polygon class="fil5 str2" points="383,374 383,373 500,398 499,400 "/>
    <polygon class="fil5 str2" points="345,349 382,358 383,379 371,393 336,386 350,370 "/>
   </g>
   <g>
    <path class="fil0" d="M720 320c-2,2 -4,2 -6,0 -3,-2 -3,-5 0,-7 2,-1 4,-1 6,1 2,1 2,3 0,6l0 0z"/>
    <path class="fil0" d="M718 332c0,2 -3,4 -5,4 -1,1 -2,1 -3,2 0,1 -1,2 -2,2 -1,0 -5,-3 -5,-4 0,-1 -1,-1 -1,1 -1,1 -1,3 -2,3 -1,2 -1,2 0,3 1,0 1,1 0,3 0,2 -1,3 -2,4 -1,1 -6,-1 -7,-4 -1,0 -1,0 -4,0 -4,0 -5,1 -10,4 -2,1 -5,3 -7,4 -1,0 -8,4 -15,7 -7,4 -17,8 -21,11 -5,2 -11,5 -13,6 -2,1 -6,3 -9,4 -4,2 -7,4 -8,5 -2,2 -6,3 -7,2 0,-1 0,-2 1,-4 2,-4 6,-5 7,-2 1,1 1,1 6,-1 2,-1 5,-3 5,-3 1,0 2,0 2,-1 1,0 4,-2 17,-9 11,-6 31,-16 35,-19 1,-1 3,-2 5,-3 1,0 2,-1 2,-1 0,-1 0,-2 1,-1 0,0 1,0 4,-1 2,-1 3,-2 2,-2 0,-1 0,-2 2,-3 2,-2 3,-3 2,-4 -1,-1 -1,-3 0,-4 0,0 1,0 0,-1 0,0 2,-2 3,-2 0,0 0,1 0,1 -1,1 -2,3 -2,4 0,0 1,-1 1,-2 1,-1 2,-2 2,-3 0,0 0,0 1,0 2,0 5,0 6,0 2,-1 3,-1 1,1 -1,1 -1,1 1,1 2,0 4,1 3,2 0,1 0,1 1,1 1,0 1,0 1,-2 -1,-2 0,-3 3,-6 1,-1 1,-3 1,-3 0,0 -4,2 -5,3 -1,1 -2,1 -2,0 0,0 1,-1 2,-1 0,-1 2,-2 3,-3 2,-3 4,-3 4,-1 0,1 0,1 0,1 -1,0 -1,2 0,2 2,0 6,4 6,5 1,1 1,3 0,4l0 0z"/>
    <path class="fil0" d="M718 341c-1,1 -1,1 -2,0 -1,-1 -1,-2 0,-3 1,0 3,1 3,2 0,0 0,0 -1,1l0 0z"/>
    <path class="fil0" d="M711 317c-1,0 -1,0 -1,0 0,-1 0,-1 1,-1 0,0 0,0 0,1 0,0 0,1 0,0z"/>
    <path class="fil0" d="M702 327c0,0 0,0 0,-1 0,0 0,0 0,0 1,0 1,0 1,0 0,0 0,0 -1,1z"/>
    <path class="fil0" d="M686 350c0,0 0,0 0,0 0,-1 0,-1 0,-1 1,0 1,0 1,1 0,0 0,0 -1,0z"/>
    <path class="fil0" d="M683 340c0,1 -1,1 -2,0 -1,-1 -1,-2 0,-2 1,-2 3,-1 2,2z"/>
    <path class="fil0" d="M682 349c0,0 -1,0 -1,-1 0,0 1,0 1,-1 0,0 0,0 1,1 0,0 -1,1 -1,1z"/>
    <path class="fil0" d="M681 362c-1,2 -3,2 -5,0 -1,-1 -1,-1 0,-3 0,-1 1,-2 2,-2 2,0 3,0 4,2 1,2 0,2 -1,3l0 0z"/>
    <path class="fil0" d="M681 351c-2,1 -2,0 -1,-1 0,-1 1,-1 1,-1 0,1 0,1 0,2z"/>
    <path class="fil0" d="M678 372c0,1 -1,1 -1,1 -1,0 -3,-1 -3,-2 0,0 2,-2 2,-2 1,0 3,1 3,2 0,0 0,1 -1,1z"/>
    <path class="fil0" d="M676 344c-1,0 -1,0 -1,-1 1,0 1,0 1,0 1,0 0,0 0,1z"/>
    <path class="fil0" d="M674 334c-1,0 -1,-1 0,-2 0,0 1,1 1,1 0,1 0,1 -1,1l0 0z"/>
    <path class="fil0" d="M674 359c0,0 -1,0 -1,0 0,-1 0,-1 1,-1 1,0 1,0 0,1l0 0z"/>
    <path class="fil0" d="M673 339c-1,0 -1,0 -2,0 -1,-2 0,-3 1,-3 1,0 2,1 1,3z"/>
    <path class="fil0" d="M667 346c-2,0 -3,0 -3,-2 0,-1 1,-2 3,-1 1,1 1,2 0,3l0 0z"/>
    <path class="fil0" d="M668 367c-1,0 -1,0 -2,0 0,0 1,-2 2,-2 1,0 1,2 0,2z"/>
    <path class="fil0" d="M666 339c-1,1 -4,1 -5,0 -1,-1 -1,-1 1,-3 2,-1 3,-1 4,0 1,1 1,2 0,3z"/>
    <path class="fil0" d="M659 327c-1,0 -1,0 -1,-1 0,-1 2,-1 2,0 0,1 0,1 -1,1l0 0z"/>
    <path class="fil0" d="M652 357c-1,1 -1,1 -1,1 -1,-1 -1,0 -2,1 -1,1 -3,2 -4,1 0,-1 0,0 -1,2 -1,2 -2,3 -5,4 -1,0 -5,-1 -6,-3 0,-1 -1,-2 0,-4 1,-4 6,-7 9,-3 2,1 2,1 2,0 1,-1 3,-1 5,0 0,0 1,0 1,-1 1,-1 3,0 3,1 0,1 -1,1 -1,1l0 0z"/>
    <path class="fil0" d="M626 332c0,1 -2,1 -2,0 0,-1 0,-2 1,-2 1,0 2,1 1,2l0 0z"/>
    <path class="fil0" d="M627 364c-1,1 -2,1 -1,0 0,-1 0,-2 0,-2 2,0 2,1 1,2z"/>
    <path class="fil0" d="M625 338c0,0 -1,0 -1,0 -1,-1 -1,-2 0,-2 2,-1 2,1 1,2z"/>
    <path class="fil0" d="M628 385c-1,0 -1,0 -1,0 0,-1 0,-1 0,-1 1,0 1,0 1,0 0,1 0,1 0,1z"/>
    <path class="fil0" d="M625 354c-1,1 -1,1 -1,-1 1,0 1,0 1,0 1,1 1,1 0,1l0 0z"/>
    <path class="fil0" d="M624 344c-1,0 -1,-1 0,-2 0,0 1,0 1,1 0,0 -1,1 -1,1l0 0z"/>
    <path class="fil0" d="M624 341c0,0 -1,0 -1,0 0,0 1,0 1,-1 0,0 0,0 0,1 0,0 0,0 0,0z"/>
    <path class="fil0" d="M626 391c-1,1 -2,1 -4,2 -1,0 -2,1 -2,1 0,1 0,1 0,1 -1,0 -1,-1 -1,-3 0,-1 -2,-1 -3,0 0,1 0,1 -1,1 0,0 0,0 0,-1 0,0 1,-2 1,-3 0,-3 0,-4 2,-5 3,-2 4,-1 7,0 2,2 2,4 1,7l0 0z"/>
    <path class="fil0" d="M622 349c0,0 -1,-1 -1,-1 0,-1 1,-1 1,-1 1,0 1,0 1,1 0,0 0,1 -1,1z"/>
    <path class="fil0" d="M625 398c0,0 -1,0 -1,0 1,-1 2,-1 2,0 0,0 0,0 -1,0l0 0z"/>
    <path class="fil0" d="M622 372c-1,1 -1,1 -3,0 -2,-2 -1,-5 2,-5 1,0 2,1 2,3 0,0 0,1 -1,2z"/>
    <path class="fil0" d="M621 355c-1,1 -2,1 -3,-1 0,-1 0,-2 1,-3 3,-1 4,1 2,4z"/>
    <path class="fil0" d="M618 399c-1,0 -2,-1 -2,-2 0,-1 0,-1 0,-2 1,-1 2,-1 2,0 2,2 2,3 0,4z"/>
    <path class="fil0" d="M615 394c0,1 -1,1 -1,1 -1,0 -1,0 -1,-1 1,0 1,0 2,0 0,0 0,0 0,0z"/>
    <path class="fil0" d="M603 368c-2,0 -3,0 -4,2 -2,2 -4,2 -6,0 -4,-3 -3,-7 2,-7 2,-1 2,0 4,1 1,1 2,2 3,2 1,0 2,0 2,0 1,0 1,1 1,1 0,1 -1,1 -2,1l0 0z"/>
    <path class="fil0" d="M602 354c-2,2 -3,2 -5,1 -2,-3 0,-7 3,-6 3,1 4,3 2,5z"/>
    <path class="fil0" d="M602 401c0,0 -1,0 -1,-1 0,-1 1,-1 1,0 0,0 0,1 0,1l0 0z"/>
    <path class="fil0" d="M584 397c-1,0 -3,1 -3,1 0,0 0,-1 1,-2 2,0 3,-1 3,-1 0,0 0,1 -1,2z"/>
    <path class="fil0" d="M579 400c-1,0 -2,0 -2,0 -1,0 2,-2 2,-1 1,0 0,0 0,1l0 0z"/>
    <path class="fil0" d="M573 356c-1,0 -1,0 -1,0 0,0 0,-1 0,-1 1,0 1,1 1,1 0,0 0,0 0,0z"/>
    <path class="fil0" d="M570 404c-1,1 -2,1 -2,1 0,-1 4,-3 4,-3 0,1 -1,1 -2,2z"/>
    <path class="fil0" d="M565 348c-1,1 -2,0 -2,-1 0,0 0,0 1,0 1,0 1,0 1,1l0 0z"/>
    <path class="fil0" d="M564 346c-1,0 -2,0 -2,-1 0,-1 1,-1 1,-1 1,0 1,1 1,2l0 0z"/>
   </g>
   <g>
    <path class="fil0" d="M881 328c-5,-1 -8,1 -9,6 -1,5 3,9 9,8 3,-1 5,-3 6,-6 1,-5 -1,-8 -6,-8l0 0z"/>
    <path class="fil0" d="M865 315c-3,-3 -8,-3 -12,0 -2,1 -3,2 -5,1 -2,-1 -3,-1 -4,0 -2,1 -4,9 -3,10 2,2 0,2 -3,0 -1,-1 -3,-2 -5,-2 -3,0 -3,-1 -3,-2 1,-2 0,-3 -4,-5 -2,-1 -4,-3 -5,-2 -4,0 -8,8 -6,12 0,1 -1,2 -4,4 -6,5 -8,6 -16,7 -5,0 -10,2 -13,2 -3,1 -16,5 -28,8 -12,3 -30,8 -38,11 -9,2 -19,5 -22,6 -4,0 -11,3 -17,4 -6,2 -12,3 -15,3 -5,0 -11,2 -10,5 0,2 1,3 5,4 7,3 13,0 11,-5 -1,-2 0,-3 8,-5 5,-1 9,-2 10,-3 1,0 2,-1 3,-1 2,0 8,-1 31,-7 21,-5 57,-13 64,-14 4,-1 8,-2 10,-2 2,-1 4,-1 4,-1 1,2 3,2 3,0 0,-1 1,-2 5,-3 4,0 6,0 6,0 0,1 1,1 5,1 5,0 8,1 7,4 -1,1 2,5 4,4 1,0 1,0 2,0 0,2 5,2 5,1 1,-1 0,-2 -1,-2 -2,0 -6,-1 -7,-2 0,0 2,0 4,0 3,1 5,2 6,2 0,1 1,0 1,0 2,-4 6,-7 8,-7 3,-1 3,-2 0,-3 -3,0 -3,0 0,-2 2,-2 3,-6 1,-6 0,0 0,-1 0,-2 2,-1 2,-1 3,1 2,3 3,4 11,5 3,0 5,1 5,1 -1,2 -7,4 -9,3 -2,0 -4,0 -3,2 0,0 2,0 3,0 1,-1 5,0 7,0 6,1 8,-1 6,-4 0,-1 -1,-1 -2,-1 -1,1 -2,-1 -1,-2 2,-3 3,-11 2,-14 -1,-1 -2,-3 -4,-4l0 0z"/>
    <path class="fil0" d="M855 304c-2,0 -2,0 -3,1 0,3 1,4 3,4 2,-1 3,-4 2,-5 0,0 -1,0 -2,0l0 0z"/>
    <path class="fil0" d="M871 341c0,0 0,1 1,2 0,0 1,0 1,0 0,-1 0,-1 0,-2 -1,-1 -1,-1 -2,0z"/>
    <path class="fil0" d="M851 339c-1,0 -1,0 -1,1 1,0 1,0 2,0 0,0 1,-1 0,-1 0,0 0,0 -1,0z"/>
    <path class="fil0" d="M805 327c-1,0 -1,1 0,1 0,1 1,1 1,0 1,0 1,-1 0,-1 0,0 -1,0 -1,0z"/>
    <path class="fil0" d="M813 344c-1,-1 -3,0 -3,3 0,1 0,2 2,2 4,0 5,-3 1,-5z"/>
    <path class="fil0" d="M801 334c0,0 0,0 0,1 0,0 1,1 2,1 0,-1 0,-1 0,-2 -1,-1 -1,-1 -2,0z"/>
    <path class="fil0" d="M786 318c-4,0 -6,2 -7,6 0,2 1,3 3,4 3,1 4,1 5,0 3,-2 4,-4 3,-7 -1,-3 -1,-3 -4,-3l0 0z"/>
    <path class="fil0" d="M797 333c-2,0 -2,1 0,2 2,0 2,0 2,-1 0,-1 -1,-1 -2,-1z"/>
    <path class="fil0" d="M771 308c-1,0 -3,0 -3,0 -1,1 -2,5 -1,6 1,1 4,2 5,1 2,-1 2,-5 2,-6 -1,0 -2,-1 -3,-1z"/>
    <path class="fil0" d="M799 347c-1,1 -1,1 0,1 1,0 2,0 2,-1 0,0 -1,0 -2,0z"/>
    <path class="fil0" d="M808 360c-1,2 0,4 1,3 1,0 1,-1 0,-2 0,-1 -1,-1 -1,-1l0 0z"/>
    <path class="fil0" d="M781 330c-1,0 -2,0 -2,1 0,1 2,1 2,0 1,-1 1,-1 0,-1l0 0z"/>
    <path class="fil0" d="M801 357c-1,0 -2,0 -2,1 0,3 3,4 4,3 2,-1 1,-4 -2,-4z"/>
    <path class="fil0" d="M786 354c-3,1 -3,3 -2,5 2,2 5,2 5,-1 1,-2 -1,-4 -3,-4l0 0z"/>
    <path class="fil0" d="M763 326c-1,1 -1,1 -1,2 -1,1 3,2 4,1 1,-1 -1,-3 -3,-3z"/>
    <path class="fil0" d="M792 364c-2,0 -5,3 -6,6 0,1 1,2 4,1 5,0 6,-1 5,-4 0,-3 0,-3 -3,-3z"/>
    <path class="fil0" d="M797 385c-1,1 -2,2 -1,3 2,2 4,0 3,-3 0,-1 -1,-1 -2,0l0 0z"/>
    <path class="fil0" d="M754 356c0,0 -1,1 -1,1 0,1 -2,1 -3,0 -4,0 -7,1 -6,3 0,1 -2,1 -4,0 -4,-2 -7,-2 -11,0 -2,1 -4,7 -4,10 1,2 2,3 4,5 6,5 15,1 16,-6 0,-3 0,-4 2,-3 2,1 5,-1 5,-4 0,-2 1,-2 2,-1 2,0 4,-2 3,-4 -1,-1 -2,-1 -3,-1l0 0z"/>
    <path class="fil0" d="M751 416c-2,-1 -4,1 -3,3 1,1 2,1 3,0 1,-1 2,-2 0,-3l0 0z"/>
    <path class="fil0" d="M716 375c-2,0 -3,1 -1,3 1,0 2,1 3,0 1,-1 0,-3 -2,-3z"/>
    <path class="fil0" d="M743 410c-1,0 -2,1 -2,2 0,2 2,3 3,2 2,-2 1,-5 -1,-4z"/>
    <path class="fil0" d="M693 348c0,1 0,1 0,2 1,1 2,1 2,1 1,-1 1,-1 0,-2 0,-1 -1,-1 -2,-1z"/>
    <path class="fil0" d="M725 389c-3,1 -3,2 -1,3 2,0 2,0 2,-1 0,-2 0,-2 -1,-2l0 0z"/>
    <path class="fil0" d="M734 404c-1,1 1,3 2,2 1,0 1,-1 1,-2 -1,0 -2,0 -3,0l0 0z"/>
    <path class="fil0" d="M737 407c0,0 0,1 0,1 0,0 1,0 1,0 1,0 1,0 1,-1 -1,0 -1,0 -2,0z"/>
    <path class="fil0" d="M685 344c-2,-1 -4,-1 -6,1 -2,1 -4,1 -4,0 -1,0 -2,0 -2,0 -1,1 0,2 2,5 1,1 -2,3 -3,2 -1,0 -2,0 -2,1 -1,0 0,0 0,1 1,0 3,1 4,3 3,3 6,5 10,4 4,-1 6,-4 7,-8 0,-5 -1,-7 -6,-9l0 0z"/>
    <path class="fil0" d="M727 400c0,0 -1,1 0,2 0,0 1,0 2,0 1,-1 1,-2 0,-2 0,-1 -1,-1 -2,0z"/>
    <path class="fil0" d="M676 335c-1,1 -1,1 0,2 1,1 2,-1 2,-2 0,-1 -1,-1 -2,0l0 0z"/>
    <path class="fil0" d="M702 372c-3,0 -3,0 -4,2 -1,5 3,7 7,5 2,-2 2,-5 0,-7 0,0 -2,-1 -3,0z"/>
    <path class="fil0" d="M720 393c-4,0 -5,2 -3,5 1,1 2,2 3,2 5,-1 5,-6 0,-7z"/>
    <path class="fil0" d="M668 342c-2,1 -3,4 -2,5 0,1 2,1 3,1 2,0 2,0 2,-2 0,-3 -2,-5 -3,-4z"/>
    <path class="fil0" d="M668 351c-1,0 -2,0 -2,1 -1,1 -1,1 0,1 1,0 2,0 2,-1 1,0 1,-1 0,-1z"/>
    <path class="fil0" d="M682 397c-3,2 -4,3 -7,3 -4,-1 -7,1 -8,6 -2,8 4,12 10,7 3,-2 4,-3 4,-7 0,-2 1,-5 2,-6 1,-1 2,-2 2,-2 1,-1 1,-2 1,-2 -1,-1 -2,-1 -4,1l0 0z"/>
    <path class="fil0" d="M695 415c-3,0 -5,1 -5,5 -1,6 7,9 9,3 3,-4 1,-7 -4,-8z"/>
    <path class="fil0" d="M645 357c-1,0 -1,1 -1,2 1,1 2,1 2,-1 0,0 -1,-1 -1,-1l0 0z"/>
    <path class="fil0" d="M626 383c-1,0 -3,1 -4,1 -1,1 1,1 3,0 3,0 5,-1 5,-1 0,0 -2,0 -4,0z"/>
    <path class="fil0" d="M617 385c-2,0 -3,1 -3,1 0,1 4,0 5,-1 0,0 -1,-1 -2,0l0 0z"/>
    <path class="fil0" d="M657 445c0,0 0,1 0,1 0,0 1,1 1,1 0,-1 0,-1 0,-2 0,-1 0,-1 -1,0z"/>
    <path class="fil0" d="M602 388c-2,1 -4,1 -4,2 1,1 8,0 8,-2 -1,0 -2,0 -4,0z"/>
    <path class="fil0" d="M656 464c-1,0 -2,2 -1,3 1,0 1,0 2,-1 1,-1 1,-2 -1,-2l0 0z"/>
    <path class="fil0" d="M658 468c-1,0 -2,1 -1,3 1,0 2,1 2,0 1,-1 1,-3 -1,-3l0 0z"/>
   </g>
  </g>
 </g>
</svg>
