<svg version="1" xmlns="http://www.w3.org/2000/svg" width="682.667" height="682.667" viewBox="0 0 512.000000 512.000000"><path d="M39.5 1.9c-6.8 2-11.5 4.2-16.2 7.8L20 12.1V8.6C20 3.3 18 2 9.6 2c-4.3 0-7.7.5-8.4 1.2C.3 4.1 0 29.8 0 112.5v108.2l2.3 4.4c1.6 2.9 4 5.4 7.2 7.4l4.8 3 39 .3 39 .3 5.2-2.6c3.4-1.6 6.3-4 8.1-6.7l2.9-4.1.3-87.5c.2-75.8 0-88.3-1.3-93.6C102.6 22 87.5 6.7 68 1.5c-7.4-2-21-1.8-28.5.4zM284.9 2.8c-3.9 2-6.2 4.1-8.4 7.7l-3 4.8v103.6c0 99.2.1 103.7 1.9 107.1 2.6 4.9 5.5 7.9 10.1 10.3l4 2.2 101 .3c74.2.2 102.1 0 105.2-.9 5.4-1.5 12.1-7.2 14.4-12.3 1.8-3.9 1.9-8.8 1.9-94.6V40.5l-20.9-20.3C474.9 4.5 469.6 0 467.6 0H465v23.5c0 26-.4 28.1-6.3 34.4-6.9 7.3-4.8 7.1-66 7.1-43.7 0-55.4-.3-58-1.3-4.7-2-9.5-6.4-12-11.1-2.1-3.8-2.2-5.6-2.5-28.4L319.8 0H305c-14.2 0-15 .1-20.1 2.8zm136.9 167.9l.3 6.3H327v-13l47.3.2 47.2.3.3 6.2zm.2 28.3v6h-95v-12h95v6zM172.7 21.7c-.4.3-.7 4.1-.7 8.4v7.8l-8.7.3-8.8.3v15l8.7.3 8.7.3.3 8.7.3 8.7 6.3.3c8.6.4 9.2-.3 9.2-9.9V54h7.9c8.9 0 9.1-.1 9.1-8s-.2-8-9.1-8H188v-6.9c0-10-.1-10.1-7.9-10.1-3.7 0-7.1.3-7.4.7zM130 123.5V163h89.1l2.4-2.5 2.5-2.4V124c0-33.8-.3-37.2-3.4-39.2-.6-.4-21.2-.8-45.8-.8H130v39.5zM181.2 170c-3.4 1.5-4.7 2.9-6.3 6.5-5.9 13.4 9.8 25.4 21 15.9 8.1-6.8 5.3-20.6-4.7-23.4-4.8-1.3-5-1.3-10 1zM181.4 205.4c-6.8 3-9.7 10.9-6.5 18.1 4.9 11.2 21.3 10.5 25.1-1.1 2.3-6.8-1.1-14.3-7.6-17-4.1-1.7-7-1.7-11 0zM283.5 275.4c-3.7 1.6-7 5.2-8.4 8.9-.7 1.9-1.1 22.8-1.1 62.9 0 65.4-.1 64.2 5.7 68.8 1.9 1.5 3 1.7 4.9.9 3.7-1.3 212.4-1.2 216.1.2 2.5.9 3.1.7 6-2.4 1.7-1.9 3.6-5.2 4.2-7.4 1.6-5.5 1.5-116.8 0-121.4-1.4-4-5.3-8.5-9.1-10.5-3.9-2-213.7-2-218.3 0zM21.2 302.4l-3.7 3.4-.3 43.4c-.2 29 0 44.5.8 47 .6 2.2 2.3 4.6 4.3 6l3.2 2.3 91.5.3c62.8.2 92.7 0 95.2-.8 2-.6 4.8-2.4 6.2-4.1l2.6-3.1v-91l-3.4-3.4-3.4-3.4H25l-3.8 3.4zm19.8 4.5c1.4 2.6 1.4 47.6 0 50.2-1.2 2.2-5.9 2.6-7.8.7-1.7-1.7-1.7-49.9 0-51.6 1.9-1.9 6.6-1.5 7.8.7zm-1.2 64.7c2 1.4 2.2 2.3 2.2 10.4 0 8.4-.1 9-2.5 10.6-2.3 1.5-2.7 1.5-5 0-2.4-1.6-2.5-2.2-2.5-10.6 0-8.1.2-9 2.2-10.4 1.2-.9 2.5-1.6 2.8-1.6.3 0 1.6.7 2.8 1.6zM108.1 419.4c-1.7 2-.5 5.3 2.2 6 1.2.3 5.6.6 9.8.6 8.5 0 11.3-1.3 10.7-5.1-.3-2.4-.5-2.4-10.9-2.7-8.4-.2-10.9 0-11.8 1.2zM27.2 426.3c-4.3 1.3-9.9 7.7-10.8 12.1-2.2 11.9 8.8 22.6 20.1 19.5 9.7-2.6 15.4-14.4 11.1-22.7-2.1-4.1-6.8-8.1-10.7-9.2-4-1.2-5.3-1.1-9.7.3zM199.7 426.4c-7.3 2.7-10.9 7.9-10.9 15.8 0 10.8 10 18.5 20.4 15.7 5.3-1.4 10.2-6.3 11.9-11.7 3.6-12.3-9.2-24.2-21.4-19.8zM65.8 443.1c-1.1.6-1.8 2.2-1.8 4 0 2.2.6 3.2 2.6 3.9 1.5.6 22.7 1 53.2 1 44.3 0 51-.2 53-1.6 2.6-1.8 2.8-4.6.6-6.8-1.4-1.4-7.6-1.6-53.7-1.6-33.6 0-52.8.4-53.9 1.1zM58 487.5v8.5h122v-17H58v8.5z"/></svg>