<?xml version="1.0" encoding="UTF-8"?>
<svg version="1.1" viewBox="0 0 3000 2000" xmlns="http://www.w3.org/2000/svg">
 <defs>
  <filter id="a" x="-.047413" y="-.048601" width="1.0948" height="1.0972" color-interpolation-filters="sRGB">
   <feGaussianBlur stdDeviation="22.334935"/>
  </filter>
 </defs>
 <g transform="matrix(.95014 .31182 -.31182 .95014 3564.1 643.12)">
  <g transform="matrix(3.1878e-5 -.067945 .067945 3.1878e-5 -1131.3 385.25)" stroke-width="0">
   <path d="m221.41 2313.7a387.47 387.47 0 0 0 -387.47 387.47 387.47 387.47 0 0 0 112.14 272.39h-1.1602l537.96 609.13 533.33-589.79a390.93 387.47 0 0 0 118.51 -277.89 390.93 387.47 0 0 0 -390.93 -387.46 390.93 387.47 0 0 0 -254.69 94.127 387.47 387.47 0 0 0 -267.7 -107.97z"/>
   <path transform="matrix(1.0686 0 0 1.0686 -33.23 -202.28)" d="m255.82 2396.7a336.76 336.76 0 0 0 -336.76 336.76 336.76 336.76 0 0 0 97.463 236.75h-1.0083l467.57 529.42 463.54-512.61a339.77 336.76 0 0 0 103 -241.53 339.77 336.76 0 0 0 -339.77 -336.76 339.77 336.76 0 0 0 -221.36 81.81 336.76 336.76 0 0 0 -232.67 -93.838z" filter="url(#a)"/>
   <path d="m259.22 2404.9a331.75 331.75 0 0 0 -331.75 331.75 331.75 331.75 0 0 0 96.012 233.22h-0.99333l460.6 521.54 456.64-504.98a334.71 331.75 0 0 0 101.47 -237.93 334.71 331.75 0 0 0 -334.71 -331.75 334.71 331.75 0 0 0 -218.06 80.592 331.75 331.75 0 0 0 -229.2 -92.441z" opacity=".39"/>
  </g>
  <path d="m-1177.8 357.05 4e-4 -3.28 221.29 0.42366-4e-4 3.28z" stroke="#140e0e" stroke-linecap="round" stroke-linejoin="round" stroke-width="21.914"/>
 </g>
 <g transform="matrix(.97719 .21237 -.21237 .97719 2241.9 547.37)">
  <g transform="matrix(3.1878e-5 -.067945 .067945 3.1878e-5 -1131.3 385.25)" stroke-width="0">
   <path d="m221.41 2313.7a387.47 387.47 0 0 0 -387.47 387.47 387.47 387.47 0 0 0 112.14 272.39h-1.1602l537.96 609.13 533.33-589.79a390.93 387.47 0 0 0 118.51 -277.89 390.93 387.47 0 0 0 -390.93 -387.46 390.93 387.47 0 0 0 -254.69 94.127 387.47 387.47 0 0 0 -267.7 -107.97z"/>
   <path transform="matrix(1.0686 0 0 1.0686 -33.23 -202.28)" d="m255.82 2396.7a336.76 336.76 0 0 0 -336.76 336.76 336.76 336.76 0 0 0 97.463 236.75h-1.0083l467.57 529.42 463.54-512.61a339.77 336.76 0 0 0 103 -241.53 339.77 336.76 0 0 0 -339.77 -336.76 339.77 336.76 0 0 0 -221.36 81.81 336.76 336.76 0 0 0 -232.67 -93.838z" filter="url(#a)"/>
   <path d="m259.22 2404.9a331.75 331.75 0 0 0 -331.75 331.75 331.75 331.75 0 0 0 96.012 233.22h-0.99333l460.6 521.54 456.64-504.98a334.71 331.75 0 0 0 101.47 -237.93 334.71 331.75 0 0 0 -334.71 -331.75 334.71 331.75 0 0 0 -218.06 80.592 331.75 331.75 0 0 0 -229.2 -92.441z" opacity=".39"/>
  </g>
  <path d="m-1177.8 357.05 4e-4 -3.28 221.29 0.42366-4e-4 3.28z" stroke="#140e0e" stroke-linecap="round" stroke-linejoin="round" stroke-width="21.914"/>
 </g>
 <path d="m668.99 13.354c163.46 421.41-49.591 465.35-201.69 570.4z" fill="none" stroke="#140e0e" stroke-linecap="round" stroke-linejoin="round" stroke-width="17.148"/>
 <path d="m479.23 151.04c15.462-2.4899 30.409 7.5709 45.781 10.565 13.077 2.5474 27.325 0.81386 39.472 6.2875 15.75 7.0974 27.067 18.262 20.438 32.114-4.6867 9.793 11.037 15.29 10.076 26.79-1.1578 13.847-14.857 30.646-13.9 46.934 0.61479 10.464 15.869 19.007 12.399 28.898-0.81179 2.314-5.379 1.2802-6.4887 3.4671-2.0568 4.0531 3.8143 9.3713 1.9146 13.5-0.94343 2.0503-5.7095 3.6395-5.7095 3.6395s3.6271 4.2297 2.6879 6.3162c-0.63655 1.4143-3.3617 0.3344-4.4129 1.4748-3.6704 3.9816-0.43108 11.601-3.8809 15.775-3.5136 4.2513-9.6216 5.8532-15.035 6.9077-10.864 2.1163-22.503-4.4753-33.171-1.5242-9.9716 2.7585-20.403 8.3703-25.865 17.157-3.1021 4.9902-2.2367 17.485-2.2367 17.485 2.521 8.7005 2.8879 22.378 16.217 41.186 0 0 10.425 11.623 17.58 12.882 32.38 5.6975 59.679 6.9897 96.768 5.8967 8.648-0.2548 13.237-13.75 21.886-13.952 8.915-0.2084 24.258 4.4556 23.206 13.311 0 0-7.0184 26.385-17.284 33.768-9.023 6.4895-21.91 3.8805-32.972 4.959-35.64 3.475-75.977 10.409-107.32 4.8437-24.017-4.2642-62.778-37.601-62.778-37.601-21.301 20.707-45.86 38.77-78.203 50.52 0 0 15.698 73.155 2.6789 106.02-13.117 33.113-58.987 45.743-71.43 78.99-2.7813 7.4317-1.5883 16.132 0.45127 23.801 2.1802 8.1975 7.1196 15.544 12.221 22.321 3.5948 4.7754 10.539 7.0662 12.733 12.626 1.0914 2.7662 1.8567 6.9097-0.3393 8.9149-8.3635 7.6367-24.021 3.6946-33.929-1.7912-11.036-6.1098-13.68-21.272-21.748-30.968-8.7296-10.492-26.859-15.704-28.671-29.232-0.7375-5.5049 4.6746-10.194 8.1245-14.547 5.4548-6.8819 15.145-10.11 19.46-17.758 6.0131-10.659 7.1557-36.011 7.1557-36.011s11.109-34.799 28.792-37.759c-3.0819-36.949-40.034-69.648-33.6-87.781 0.69245-1.9516-3.5636-1.7171-5.417-1.769-38.397-1.076-60.21 15.491-89.4 8.8111-9.5935-2.1955-20.176-6.923-25.198-15.386-9.7985-16.512-26.655-24.29-39.15-37.273-8.4481-8.7783-12.429-24.16-24.169-27.418-5.627-1.5616-11.082 3.6994-16.7 5.2926-6.2942 1.7849-13.029 2.1874-19.037 4.775-6.5642 2.8268-11.169 9.7061-18.08 11.525-1.5647 0.412-3.5259 0.6781-4.8471-0.2558-7.9536-5.6226-13.716-17.589-11.186-26.995 4.6091-17.134 28.197-21.547 42.298-32.316 8.8506-6.7595 15.435-20.865 26.555-20.274 10.841 0.5766 19.165 2.466 23.646 22.398 0 0 16.258 8.7966 25.144 10.936 17.447 4.1998 32.696 14.317 44.129 30.555 0 0 46.155 0.1357 58.326-12.422 0 0 14.361-32.517 25.592-34.381 4.7522-0.7885-10.343 1.0995-14.369-1.5467-2.9902-1.9658-2.1949-7.5419-5.2869-9.3433-2.1189-1.2346-5.2496 1.26-7.3568 0.01-4.5368-2.7004-3.1972-10.927-7.5407-13.929-2.635-1.8209-7.2255 0.9421-9.5216-1.2909-3.0806-2.9959 0.28572-9.1388-2.0871-12.721-3.9025-5.8923-14.938-4.9189-17.925-11.324-1.3535-2.9028-0.75163-7.0544 1.2909-9.5216 3.9562-4.7786 12.741-2.1081 17.652-5.8991 13.726-10.596 15.085-32.498 28.441-43.557 8.241-6.8233 29.677-12.227 29.677-12.227s-20.192-26.551-20.46-44.168c-0.14234-9.3489-5.9043-43.238 8.84-53.943 3.6231-2.6306 7.6756 3.9559 13.277 2.0385 6.7992-2.3275 2.3979-11.528 6.8696-14.416 4.2542-2.7474 10.897 2.372 15.189-0.31473 5.3593-3.3542 3.3295-13.456 8.642-16.884 2.5482-1.6443 8.0007 2.3915 9.0875-0.43981 4.175-10.876 5.3796-13.269 11.413-14.636 4.2783-0.96933 7.9362 7.7997 11.775 5.8763 2.391-1.1978 11.961-24.265 20.239-17.586 5.6537 4.5616 9.6658 21.898 6.638 39.686-6.2878 36.941-4.9862 57.004-0.74224 85.029 5.2921 34.946 20.659 86.115 55.896 90.835 6.0692 0.8129 13.151-6.4422 13.406-12.56 0.47661-11.434-15.032-17.277-23.013-25.478-3.9657-4.0747-9.921-6.6288-12.344-11.773-9.1643-19.456-10.001-43.537-4.5987-64.354 2.5357-9.7716 9.3135-18.334 16.575-25.347 5.8191-5.6196 17.128-5.3386 20.762-12.566 6.7563-13.437 22.136-19.648 36-21.881z" fill-rule="evenodd" stroke="#000" stroke-width=".48002px"/>
 <path d="m1647.7 1077.9-1.8514-20.367-7.4062-9.2578-31.477-18.516h-3.7031s-5.9263-6.986-5.5545-11.11c0.2778-3.0733 5.5545-7.4061 5.5545-7.4061l3.7031-5.5547-1.8514-12.961 9.2578-3.7031-7.4064-7.4063 5.5548-9.2577-11.109-3.7031s0.1889-6.5853 1.8514-9.2578c5.3448-8.5964 24.07-18.516 24.07-18.516v-9.2578l18.516-38.882-5.5548-9.2578s38.294-19.808 59.25-22.219c14.222-1.636 29.539-0.33847 42.586 5.5548 11.958 5.4014 21.602 15.538 29.625 25.922 7.5936 9.8288 13.108 21.427 16.664 33.328 3.0249 10.122 5.6453 21.092 3.7031 31.476-2.1824 11.669-16.664 31.477-16.664 31.477l-20.367 37.031z" fill-rule="evenodd" stroke="#000" stroke-width="3.7031px"/>
 <path d="m1756.9 1026.1 18.516 35.179h-5.5547l35.18 61.101 16.664 38.883 1.8514 64.804-1.8514 11.109 7.4062 53.695-3.7031 29.625 11.109 5.5545 1.8517 16.664 7.4062 16.664-5.5548 31.476 5.5548 33.328 27.773 49.992 18.516 116.65-51.844 11.109-181.45 25.922-68.507-12.961-12.961-64.804-3.703-61.101v-61.101l-25.922-33.328-5.5546-59.25-33.328-35.179 9.2577-31.477-42.586-27.773-5.5547-14.812c-26.953-7.7658-39.249-26.495-35.179-40.734l3.703-12.961c11.109 24.688 14.812 37.031 25.922 37.031h24.07l-1.8516-27.773s-28.243-15.675-27.773-22.219c0.4073-5.6752 18.902 0.7836 27.773 3.7031 24.462 8.0508 55.547 46.289 55.547 46.289l25.922 20.367 66.656-122.2-7.4064-29.625 112.95-57.398z" fill-rule="evenodd" stroke="#000" stroke-width="3.7031px"/>
 <path d="m1569.9 1429.7-29.625-12.961-11.109 11.11-94.43 11.109-29.625 5.5547-33.328 31.476-1.8517 51.844v40.734l11.109 40.734 11.109 155.53-3.7031 31.476v20.367l22.219 3.7031-3.7031 11.109-40.734 14.812-37.031 9.2579-16.664 1.8515-9.2578 22.219 25.922 11.11 201.82-5.5547 1.8517-14.812v-25.922l-16.664-33.328-9.2579-79.617-12.961-18.516 7.4061-38.883-12.961-77.765v-20.367l-7.4062-5.5548 1.8515-14.812 175.9 37.031 5.555 24.07-1.8517 18.515 3.7031 168.49 9.2578 61.101 33.328 31.476 75.914 1.8517 38.883-16.664 44.437-18.516 101.84-11.109 40.734-16.664h9.2579l-1.8517 14.812-12.961 7.4062-5.5548 12.961 29.625 12.961 35.179-11.109 24.07-18.516 16.664-25.922-7.4062-29.625v-24.07l9.2576-12.961 3.7032-48.14-9.2577-16.664-14.813-7.4062-25.922 7.4062-22.219 20.367-20.367 5.5546h-25.922l-38.883 18.516-38.883 1.8514-29.625 11.11-38.882 7.4062-38.883 24.07-14.812-5.5545 40.734-175.9z" fill-rule="evenodd" stroke="#000" stroke-width="3.7031px"/>
 <path d="m1835.1 1887z" fill="none" stroke="#000" stroke-width="3.7031px"/>
 <path d="m1245.9 1398.3-22.219 90.726-7.4062 27.773-5.5548 66.656-14.813 68.508-12.961 88.875-1.8516 33.328 12.961 59.25 5.555 29.625 24.07 5.5548 18.516 11.109 5.5546 16.664-31.476 11.11-46.289-3.703-11.109-37.031-27.773-22.219-5.5548-3.7031-9.2578 35.18 1.8517 29.625h-9.2579l-14.812-74.062-1.8517-22.219 25.922-49.992 3.703-44.437 7.4062-79.617-3.7031-25.922-29.625 35.18-42.586 66.656-25.922 51.843-7.4062 68.508v27.773l22.219 16.664 9.258 16.664-5.5546 11.11-38.883-1.8517-22.218-11.109-12.961-16.664-3.7031-29.625-20.367-38.883-12.961 22.219-20.367 37.031-5.5548-1.8517 11.11-61.101 5.5545-35.179 38.883-29.625 27.773-33.328 25.922-75.914 33.328-66.656 57.398-62.953 11.109-40.734-7.4062-53.695z" fill="#f00" fill-rule="evenodd"/>
 <path d="m1245.7 1039.3 152.06 88.614 13.618 3.6923 27.235 20.307c27.629 11.031 48.329 22.867 34.044 38.769v16.615l-11.348 5.5384-11.348-27.692-22.696-12.923-6.8085 1.8462-9.0783 20.308 12.346 10.043c4.2783 6.2442 7.5263 4.685-9.0782 2.4359 0 0-13.142-4.2844-16.885-8.7865-7.1776-8.6331-7.1674-30.718-7.1674-30.718l-22.15-9.4524-143.17-48.443z" fill="#f00" fill-rule="evenodd"/>
 <path d="m1312.2 1396.2-215.29 38.858s-19.102-104.81-36.205-155.06c-7.0985-20.854-21.455-38.935-27.356-60.16-5.8241-20.948-7.5638-43.049-7.5225-64.791 0.028-14.448 2.0324-28.931 5.1629-43.035 3.6007-16.224 15.56-47.364 15.56-47.364l-17.316-41.589-20.62-31.311-11.907-42.852-3.7807 40.811-2.5261-10.818-5.6473 16.529-3.368-14.425-5.2266 18.333-4.6309-19.834-5.1073 10.699-14.679-95.443 12.129-86.492 21.93-52.654 26.378-49.89s10.899-60.802 25.171-87.635c7.2451-13.623 29.747-35.466 29.747-35.466s22.854-1.8367 34.139-0.36554c7.6684 0.99966 15.084 3.566 22.36 6.1875 15.329 5.5234 32.991 8.5741 44.6 20.008 8.5375 8.4092 15.211 32.574 15.211 32.574l-6.7914 3.487 8.4198 36.061-12.86 18.213 3.9713 33.297-13.042 1.144 1.684 7.2123-10.818 2.526 5.2902 6.3702-9.0153 2.1048-4.2654 14.306 5.8939 25.243-0.5957 38.166 20.438 14.242 9.2617 39.668 0.064 24.703 14.488 21.335 11.66 1.08 14.306 4.2654 33.003 43.631-0.3572 22.899-17.729 13.646 28.206 120.81-11.056 17.792 39.334 184.75z" fill="#f00" fill-rule="evenodd"/>
 <g transform="matrix(2.7749 0 0 2.7749 1313.6 -294.67)" fill="#f00">
  <g fill="#f00" fill-rule="evenodd" stroke-width="1px">
   <path d="m424.88 368.14-32.102 2.5176-3.7773 6.2949-3.7774 3.7773-11.33 6.9238-7.5527 5.0352-7.5527 1.2598-9.4434 8.8125-19.512 23.289-12.59 15.736-16.996 21.402-0.62891 6.2949 3.1484 14.477 5.6641 5.0352 16.996 14.479 18.254 17.625 10.07 8.1816 1.8887-3.1465s3.718 3.9401 5.6657 4.7204c2.3692 0.94923 5.6644-0.94309 5.6644-0.94309l5.666-1.2598 96.936 7.5527 5.0352-6.9238 8.1836-1.8887 5.0352-8.8106 1.2598 1.2578 4.4062-14.477 11.33-23.92 3.1465-12.59-1.8867-15.736-2.5195-2.5176-27.695-42.803-10.701-13.848-8.8125-8.1836-14.477-5.0352-8.1836-1.2598zm35.25 72.389 10.07 6.9238 6.9258 19.512 2.5176 4.4062v3.7773l1.2578 6.9238v3.7773l-2.5176 3.1465-2.5176 11.961-1.8887 4.4062-2.5176 8.1816-11.33-1.8887 0.62891-3.1465-0.62891-4.4062 1.8887-6.9238v-13.219l-2.5176-8.8125v-6.2949l1.8887-8.8125-1.2598-8.1816zm-101.97 15.736 5.0371 21.4 1.8867 5.0352 6.9258 19.514 5.6641 4.4062-10.07 8.1836-11.961-12.59-7.5527-5.6641-1.2598-3.1484-5.6641-3.7754v-4.4062l-5.0371-5.0371-3.7754-5.0352 3.7754-2.5176 3.7773-3.7773 11.33-6.2949z"/>
   <path d="m394.04 370.98-2.5178-6.6093-5.0357 1.2589-1.8884-4.4062 1.5736 1.5736 3.462 0.31473-3.1473-6.2946-5.0356-6.924v-4.4062l-4.4062-12.589 4.4062-10.701 9.4418-11.33 3.7767-3.1473 10.071-1.8884 6.924 1.8884 9.4418 4.4062 7.5535 12.589 2.5178 8.1829 2.5178-0.62946-1.8884 3.7767v10.071l-5.0356 5.6651 0.62945 6.2946-5.6651 14.478z"/>
   <path d="m375.16 527.4-3.7767 8.1829-1.8884 9.4418v11.96l1.2589 8.1829 3.1473 25.178 1.8884 19.513 1.8884 16.366 3.1473 18.254-0.62945 8.8124-1.2589 11.33 5.0357 50.986 7.5535 43.433 1.2589 6.924 6.2946 1.8884 0.62945 6.2946 1.2589 1.2589s-4.4062-1.2589 0 5.6651 10.071 10.701 10.071 10.701l11.33 1.2589h10.071l2.5178-3.7767 1.2589-6.924-10.071-13.848 0.62946-5.0357h-2.5178l-0.62946-19.513-7.5535-35.25-6.2946-33.991 2.5178-3.7767-1.2589-8.1829 8.1829-50.357 6.924-25.178 8.8124 20.772 10.071 23.919 5.0356 18.884 1.2589 5.6651 3.1473 1.8884-2.5178 5.0356 3.1473 20.772v18.884l-3.1473 27.067 3.1473 6.924-5.0356 22.66-2.5178 5.6651v10.071l0.62946 2.5178v5.6651l16.995 3.1473 6.924-1.2589 25.808 5.0356 15.736-3.1473 5.6651-2.5178-4.4062-5.0356-19.513-5.6651-6.2946-9.4418 1.8884-2.5178-2.5178-27.696-0.62945-36.508-0.62946-20.772 1.8884-5.6651-1.8884-9.4418 2.5178-21.402v-7.5535l-2.5178-5.6651-6.924-31.473-8.8124-35.879v-3.7767l-3.1473-2.5178 3.7767-20.143z"/>
  </g>
 </g>
 <g transform="matrix(.95014 .31182 -.31182 .95014 3668.6 680.6)" stroke="#140e0e" stroke-linecap="round" stroke-linejoin="round">
  <path d="m-1450.4 353.73 4e-4 -3.28 221.29 0.42366-4e-4 3.28z" stroke-width="21.914"/>
  <path d="m-1530 321.95 70.043 1.4804 11.901 38.28-17.666 31.402-65.506 1.0166 18.791-35.865z" stroke-width="23.136"/>
 </g>
 <g transform="matrix(.97719 .21237 -.21237 .97719 2328.8 566.62)" stroke="#140e0e" stroke-linecap="round" stroke-linejoin="round">
  <path d="m-1450.4 353.73 4e-4 -3.28 221.29 0.42366-4e-4 3.28z" stroke-width="21.914"/>
  <path d="m-1530 321.95 70.043 1.4804 11.901 38.28-17.666 31.402-65.506 1.0166 18.791-35.865z" stroke-width="23.136"/>
 </g>
</svg>
