<?xml version="1.0" encoding="UTF-8"?>
<!DOCTYPE svg PUBLIC "-//W3C//DTD SVG 1.1//EN" "http://www.w3.org/Graphics/SVG/1.1/DTD/svg11.dtd">
<!-- Creator: CorelDRAW X8 -->
<svg xmlns="http://www.w3.org/2000/svg" xml:space="preserve" width="1080px" height="1080px" version="1.1" style="shape-rendering:geometricPrecision; text-rendering:geometricPrecision; image-rendering:optimizeQuality; fill-rule:evenodd; clip-rule:evenodd"
viewBox="0 0 1080 1080"
 xmlns:xlink="http://www.w3.org/1999/xlink"
 enable-background="new 0 0 2320 2208">
 <defs>
  <style type="text/css">
   <![CDATA[
    .fil1 {fill:none}
    .fil0 {fill:black}
    .fil2 {fill:#006837}
    .fil5 {fill:#009245}
    .fil9 {fill:#333333}
    .fil7 {fill:#534741}
    .fil6 {fill:gray}
    .fil12 {fill:#8C6239}
    .fil14 {fill:#9ECEE2}
    .fil8 {fill:#A67C52}
    .fil10 {fill:#B0884C}
    .fil13 {fill:#C1272D}
    .fil4 {fill:#E6C8B1}
    .fil11 {fill:#E6E6E6}
    .fil3 {fill:white}
   ]]>
  </style>
 </defs>
 <g id="Camada_x0020_1">
  <metadata id="CorelCorpID_0Corel-Layer"/>
  <path class="fil0" d="M160 676c0,-1 -1,-1 -2,-1 0,-1 -1,0 -1,1 0,2 0,3 4,3 -1,-2 -1,-2 -1,-3z"/>
  <path class="fil0" d="M96 662c10,8 16,17 27,23 -2,-14 -15,-24 -27,-23z"/>
  <path class="fil0" d="M148 661c1,1 2,3 3,4 1,1 2,1 3,1 1,0 1,-2 2,-2 0,-1 0,-2 -1,-3 -4,-6 -7,-12 -12,-18 0,-1 -2,-1 -3,-2 0,2 -1,3 0,4 2,5 5,11 8,16z"/>
  <path class="fil0" d="M77 751c3,3 5,6 7,7 2,1 5,0 7,0 0,-1 1,-2 0,-3 -1,-2 -10,-5 -14,-4z"/>
  <path class="fil0" d="M98 723c-6,-4 -11,-8 -16,-12 -3,-1 -7,-1 -11,-2l0 1c1,2 1,4 3,5 8,5 16,9 24,14 2,-2 1,-5 0,-6z"/>
  <path class="fil1" d="M266 278c3,4 5,9 6,14 3,7 9,11 13,16 3,3 5,6 6,9 4,12 1,24 -6,34 0,1 -2,2 -4,3 -2,1 -5,2 -8,2 -7,0 -11,5 -14,10 43,27 74,65 107,103 -5,-36 -7,-71 -7,-107 -1,2 -2,3 -3,4 -1,1 -2,3 -4,3 0,0 -2,-2 -2,-3 -1,-3 -1,-6 -1,-10 -2,4 -3,7 -5,10 -1,2 -2,3 -3,4 -1,-1 -2,-3 -3,-4 0,-2 0,-3 0,-5 0,-6 0,-11 0,-17 -6,0 -8,-2 -7,-8 2,-7 4,-13 5,-20 1,-2 2,-5 2,-7 0,-1 -1,-1 -1,-1 -2,1 -3,4 -5,5 -1,1 -2,1 -3,1 -1,-1 -2,-2 -2,-3 0,-3 1,-5 2,-7 1,-3 3,-7 4,-11 -9,5 -17,4 -23,-3 -6,-7 -12,-15 -14,-25 -1,-2 -2,-3 -4,-2 -9,2 -17,-1 -24,-6 -1,0 -2,-1 -3,-1 -3,1 -6,2 -9,3 0,1 0,3 1,4 3,5 7,9 9,15z"/>
  <path class="fil1" d="M592 708c-14,-16 -29,-33 -43,-50 -2,-2 -4,-3 -7,-4 -14,-2 -29,-4 -43,-7 -1,0 -2,0 -3,0 -10,2 -20,5 -29,7 0,1 0,2 1,3 8,23 15,46 15,70 0,2 2,4 4,5 2,2 5,3 7,5 6,8 14,15 17,26 2,-2 4,-2 5,-3 4,-3 8,-6 12,-9 5,-6 11,-6 18,-5 9,2 19,2 29,3 2,1 4,1 6,1 3,1 5,1 8,1 0,-3 0,-6 0,-8 0,-1 0,-3 1,-3 6,-3 12,-7 19,-10 2,-1 4,-1 7,-3 -2,-1 -3,-2 -5,-3 -6,-5 -13,-10 -19,-16z"/>
  <path class="fil1" d="M644 11c-3,-3 -6,-3 -10,-2 -1,0 -3,3 -3,6 0,3 1,6 1,10 4,-5 8,-10 12,-14z"/>
  <path class="fil1" d="M345 253c1,-2 0,-4 -3,-4 -2,0 -5,0 -7,0 -3,-1 -5,-1 -9,-2 6,7 10,13 15,19 2,-5 3,-9 4,-13z"/>
  <path class="fil1" d="M675 51c4,1 9,1 13,-2 6,-4 9,-10 8,-18 2,-6 -1,-11 -5,-15 -2,-3 -5,-6 -8,-6 -3,0 -7,2 -10,4 -1,0 -1,2 -1,3 3,7 1,14 -3,20 -2,4 1,12 6,14z"/>
  <path class="fil0" d="M1009 468c-9,2 -17,7 -23,12 -2,1 -2,3 -2,5 1,1 3,1 5,1 5,-1 11,-3 16,-5 1,-1 1,-2 2,-3 -2,-2 0,-3 1,-4 0,-2 1,-3 1,-6z"/>
  <path class="fil0" d="M970 492c-2,-5 -4,-9 -9,-12 -12,-5 -25,-10 -37,-16 -19,-9 -39,-18 -60,-24 -7,-2 -14,-5 -20,-7 0,-1 0,-1 0,-1 0,-1 1,-1 1,-1 4,-4 6,-8 6,-13 0,-9 0,-17 -1,-26 -1,-11 -11,-16 -21,-12 -1,0 -1,1 -2,1 -5,-2 -10,-3 -15,-5 1,0 1,-1 1,-2 5,-20 11,-40 16,-61 1,-3 2,-6 2,-10 0,-1 -1,-2 -2,-3 -1,-1 -4,-1 -4,-2 0,-2 0,-5 2,-6 9,-8 12,-19 13,-31 0,-10 -6,-18 -16,-20 -4,0 -7,-1 -11,-1 -12,1 -25,1 -37,1 -7,1 -15,2 -22,2 -6,0 -6,-1 -6,-6 -1,-12 -1,-24 -3,-36 -3,-15 -6,-30 -10,-45 -7,-35 -23,-65 -46,-92 -3,-3 -3,-5 1,-7 12,-5 18,-16 15,-29 -1,-7 -4,-12 -9,-17 -8,-9 -12,-10 -23,-5 -4,2 -7,5 -10,6 -3,-1 -6,-2 -9,-2 -3,0 -4,-1 -6,-3 -3,-5 -11,-8 -16,-7 -6,2 -7,7 -8,13 0,2 0,5 0,7 -2,0 -3,0 -5,-1 -6,-1 -12,-3 -18,-4 -16,-5 -32,-7 -49,-7 -22,0 -44,4 -65,10 -32,8 -59,24 -81,50 -5,6 -9,13 -14,20 0,0 -1,1 -2,1 -12,2 -24,7 -35,12 -20,7 -39,15 -56,29 -12,10 -23,20 -32,34 -9,13 -7,27 0,40 0,1 1,3 1,6 -8,-1 -16,0 -24,-1 -4,0 -8,-1 -11,0 -5,1 -9,2 -14,5 -24,12 -48,25 -72,37 -6,4 -9,8 -10,16 -1,20 -2,40 -1,60 1,8 2,16 4,24 2,8 4,16 6,25 1,2 1,4 0,5 -2,3 -4,5 -7,8 -3,3 -5,7 -4,11 6,14 13,26 22,37 3,3 5,7 5,11 1,16 6,31 12,45 9,26 21,51 34,75 10,17 20,34 32,50 15,19 28,39 44,57 13,15 27,29 41,43 14,15 30,28 48,38 15,8 30,15 47,15 2,0 5,0 7,0 3,0 4,2 3,4 0,3 1,5 1,7 5,12 14,19 22,28 1,0 3,1 5,1 3,0 7,-1 10,-1 1,1 1,2 2,4 -8,5 -17,11 -26,15 -6,4 -8,6 -8,14 1,11 4,21 7,31 2,5 5,7 10,8 7,0 13,-1 19,-1 1,0 3,1 4,2 3,5 7,10 10,15 2,4 5,5 9,5 2,0 3,0 4,0 -3,7 1,11 6,14 1,1 1,1 2,1 4,4 9,5 15,5 1,0 3,0 4,1 3,3 6,5 11,4 5,-2 11,-4 16,-6 3,0 4,-1 6,-2 15,23 33,27 55,14 10,-6 13,-16 15,-26 4,-15 -2,-26 -13,-35 4,-4 5,-9 5,-13 0,-2 2,-4 3,-6 1,0 1,0 2,1 1,2 3,5 4,7 2,5 5,5 9,2 17,-13 34,-25 51,-38 5,-3 9,-7 13,-10 1,-1 3,-2 4,-2 8,1 16,1 24,2 1,0 2,1 3,1 2,4 4,8 6,13 9,23 18,45 21,70 2,12 4,24 5,37 0,4 1,6 5,8 2,2 4,3 6,4 1,0 1,2 2,3 0,0 -2,1 -2,1 -6,0 -11,0 -17,0 -1,0 -3,2 -3,3 -2,11 -2,23 3,35 1,1 2,3 0,5 -3,4 -6,8 -9,11 0,2 -2,2 -2,4 -2,5 -3,6 -9,6 -18,2 -37,1 -55,-2 -14,-2 -26,-8 -39,-11 -7,-2 -13,-5 -19,-8 -4,-2 -8,-1 -9,4 -1,3 -2,7 -4,11 -3,11 1,21 5,31 1,3 6,4 2,8 0,10 2,16 14,18 7,2 15,3 23,4 20,4 41,4 61,3 10,-1 21,-2 31,-5 11,-2 22,-5 32,-9 6,-1 7,1 8,5 0,3 1,6 2,9 1,3 2,3 5,3 10,0 21,1 32,1 16,0 33,2 50,0 19,-3 37,-7 56,-11 2,-1 4,-2 5,-4 2,-4 1,-8 -1,-12 -1,-2 -2,-4 -2,-6 0,-10 -3,-19 -7,-27 -1,-3 -3,-4 -7,-3 -2,1 -5,1 -8,1 -13,3 -28,1 -41,5 -2,0 -4,-1 -5,-3 -2,-3 -5,-7 -7,-11 -2,-2 -1,-4 1,-5 1,0 3,-2 3,-3 4,-8 9,-15 12,-23 1,-2 2,-5 1,-7 -3,-9 -14,-17 -24,-17 -2,0 -3,0 -5,0 4,-6 9,-7 14,-9 0,-2 0,-4 1,-6 5,-18 11,-35 17,-53 5,-16 9,-33 15,-49 6,-17 12,-34 19,-51 7,-17 15,-34 23,-50 3,-8 7,-16 10,-23 1,-2 2,-3 3,-4 10,-7 21,-14 30,-22 14,-11 12,-6 13,-25 3,-41 -4,-81 -12,-121 -4,-16 -9,-32 -13,-48zm-635 -243c2,0 5,0 7,0 3,0 4,2 3,4 -1,4 -2,8 -4,13 -5,-6 -9,-12 -15,-19 4,1 6,1 9,2zm-70 7c1,0 2,1 3,1 7,5 15,8 24,6 2,-1 3,0 4,2 2,10 8,18 14,25 6,7 14,8 23,3 -1,4 -3,8 -4,11 -1,2 -2,4 -2,7 0,1 1,2 2,3 1,0 2,0 3,-1 2,-1 3,-4 5,-5 0,0 1,0 1,1 0,2 -1,5 -2,7 -1,7 -3,13 -5,20 -1,6 1,8 7,8 0,6 0,11 0,17 0,2 0,3 0,5 1,1 2,3 3,4 1,-1 2,-2 3,-4 2,-3 3,-6 5,-10 0,4 0,7 1,10 0,1 2,3 2,3 2,0 3,-2 4,-3 1,-1 2,-2 3,-4 0,36 2,71 7,107 -33,-38 -64,-76 -107,-103 3,-5 7,-10 14,-10 3,0 6,-1 8,-2 2,-1 4,-2 4,-3 7,-10 10,-22 6,-34 -1,-3 -3,-6 -6,-9 -4,-5 -10,-9 -13,-16 -1,-5 -3,-10 -6,-14 -2,-6 -6,-10 -9,-15 -1,-1 -1,-3 -1,-4 3,-1 6,-2 9,-3zm366 -241c0,-3 2,-6 3,-6 4,-1 7,-1 10,2 -4,4 -8,9 -12,14 0,-4 -1,-7 -1,-10zm-22 715c-7,3 -13,7 -19,10 -1,0 -1,2 -1,3 0,2 0,5 0,8 -3,0 -5,0 -8,-1 -2,0 -4,0 -6,-1 -10,-1 -20,-1 -29,-3 -7,-1 -13,-1 -18,5 -4,3 -8,6 -12,9 -1,1 -3,1 -5,3 -3,-11 -11,-18 -17,-26 -2,-2 -5,-3 -7,-5 -2,-1 -4,-3 -4,-5 0,-24 -7,-47 -15,-70 -1,-1 -1,-2 -1,-3 9,-2 19,-5 29,-7 1,0 2,0 3,0 14,3 29,5 43,7 3,1 5,2 7,4 14,17 29,34 43,50 6,6 13,11 19,16 2,1 3,2 5,3 -3,2 -5,2 -7,3zm60 -693c4,-6 6,-13 3,-20 0,-1 0,-3 1,-3 3,-2 7,-4 10,-4 3,0 6,3 8,6 4,4 7,9 5,15 1,8 -2,14 -8,18 -4,3 -9,3 -13,2 -5,-2 -8,-10 -6,-14z"/>
  <path class="fil0" d="M172 694c-43,-6 -59,33 -58,50 0,12 4,24 12,35 8,12 25,13 34,1 1,-1 1,-2 2,-2 5,-8 3,-17 -4,-23 -4,-4 -8,-7 -11,-12 -3,-4 -1,-9 2,-12 5,-4 10,-5 15,-1 2,1 4,3 5,5 10,12 10,25 3,38 -4,9 -10,18 -14,27 -6,13 -9,26 -6,40 1,4 3,6 7,6 9,2 17,-2 23,-8 1,0 1,-2 1,-3 1,-11 5,-22 12,-32 4,-6 8,-12 12,-18 15,-26 16,-85 -35,-91z"/>
  <path class="fil0" d="M199 690c2,-2 4,-3 5,-5 3,-5 6,-9 10,-13 3,-5 2,-6 -3,-9 -6,8 -11,16 -16,24 0,1 0,3 0,3 1,0 3,1 4,0z"/>
  <path class="fil0" d="M168 868c-9,1 -18,10 -17,20 0,10 10,17 22,17 10,0 17,-8 17,-18 -1,-13 -8,-19 -22,-19z"/>
  <path class="fil0" d="M180 661c0,1 1,2 2,3 1,-1 2,-2 2,-3 1,-4 1,-8 1,-11 0,-3 -2,-5 -5,-6 0,3 0,5 0,7 0,3 -1,6 0,10z"/>
  <path class="fil0" d="M975 474c6,-1 32,-25 33,-30 -1,0 -2,0 -3,0 1,-4 0,-6 -4,-8 -1,1 -2,2 -2,3 -4,5 -8,10 -11,15 -4,5 -8,9 -11,14 -1,1 -1,3 -2,6z"/>
  <path class="fil0" d="M969 468c1,-2 2,-3 3,-5 5,-8 10,-16 14,-25 1,0 0,-2 0,-3 -2,-1 -4,-2 -6,-2 -1,0 -3,1 -3,1 -3,9 -6,18 -9,27 -1,2 0,4 0,6l1 1z"/>
  <path class="fil0" d="M235 702c0,-1 0,-3 -1,-4 0,-1 -2,-1 -3,-1 -2,0 -4,1 -6,2 -1,0 -2,1 -2,1 0,4 -3,3 -5,3 -1,0 -3,1 -4,2 1,1 2,3 4,4 0,0 2,0 2,0 6,0 13,-3 15,-7z"/>
  <path class="fil0" d="M234 720c-3,1 -6,1 -9,2 -1,0 -2,1 -3,2 1,1 2,2 3,3 5,1 9,-1 13,-4 -1,-3 -2,-4 -4,-3z"/>
  <g id="colors">
   <path class="fil2" d="M532 155c-18,-14 -37,-28 -56,-40 -15,-10 -32,-15 -50,-18 -11,-2 -21,-1 -32,1 -24,4 -48,12 -70,23 -20,10 -39,22 -54,40 -3,4 -6,9 -9,15 -4,10 -2,21 5,32 -1,0 -2,0 -3,0 2,2 3,4 5,6 0,0 0,0 0,0 11,6 22,12 33,18 1,0 2,1 2,1 3,4 7,6 12,6 8,0 15,3 23,0 1,0 3,-1 4,-1 28,-32 65,-48 106,-55 19,-3 39,-5 59,-4 3,0 5,0 8,0 6,0 12,0 18,0 0,0 1,0 1,-1 -3,-2 -6,-4 -9,-7 -3,-2 -7,-5 -11,-8 -1,-1 -1,-3 -2,-4 2,0 4,0 5,0 7,5 14,9 19,15 6,5 13,8 20,10 1,1 3,2 4,3 2,1 3,1 5,2 0,0 1,-1 1,-2 -11,-11 -22,-22 -34,-32zm-256 20c0,-6 16,-21 24,-23 -1,4 -18,21 -24,23zm40 -32c2,-7 22,-17 31,-16 -4,4 -28,17 -31,16zm95 -30c0,0 -1,0 -1,0 -18,-2 -34,4 -50,8 -2,1 -3,1 -4,1 0,0 0,-1 -1,-1 2,-1 3,-3 5,-3 6,-2 13,-5 20,-6 10,-1 20,-2 30,-3 2,-1 4,0 7,0 0,1 0,1 0,2 -2,0 -4,1 -6,2zm24 0c9,-3 29,6 32,12 -11,-4 -21,-8 -32,-12zm70 41c-8,-5 -16,-11 -24,-16 -2,-1 -3,-2 -4,-3 0,-1 0,-1 0,-2 2,1 3,1 5,1 8,6 17,11 25,16 1,1 1,3 2,5 -1,-1 -3,0 -4,-1z"/>
   <path class="fil3" d="M260 210c0,0 0,0 0,1 1,0 1,0 1,0 0,0 -1,0 -1,0 1,0 1,-1 1,-1 -1,-1 -2,-2 -2,-3 0,0 0,0 0,0 0,1 0,2 1,3z"/>
   <g>
    <path class="fil4" d="M388 248c-1,-2 -2,-3 -3,-4 0,-1 -1,-2 -2,-4 -13,14 -23,29 -32,45 -1,0 -1,0 -2,0 0,-2 -1,-4 -1,-6 0,-6 0,-13 0,-19 0,-4 -1,-7 -2,-11 -1,-4 1,-8 4,-11 14,-17 32,-28 54,-33 18,-5 36,-10 54,-13 32,-6 63,-6 94,2 25,6 49,15 71,27 2,1 4,4 5,6 5,17 9,34 10,52 0,16 1,32 1,49 0,4 -1,8 -1,12 0,1 1,2 2,4 1,-1 3,-1 3,-2 5,-7 10,-15 14,-22 0,-1 1,-1 1,-2 0,0 1,0 1,0 -2,10 -4,20 -6,30 -1,1 0,3 0,5 2,-1 4,-1 5,-2 3,-3 6,-6 10,-9 0,2 0,3 0,5 -1,10 2,20 6,29 1,1 2,2 4,3 1,-1 2,-3 2,-4 3,-14 5,-29 7,-44 1,-9 3,-18 11,-25 5,-6 12,-9 19,-7 5,1 10,6 14,10 10,12 12,25 10,40 -1,7 -5,9 -10,12 -13,7 -27,15 -41,22 -1,1 -2,2 -2,3 1,14 -1,28 -1,41 -1,22 -5,43 -7,65 -1,3 -2,6 -3,10 -14,-5 -27,1 -41,3 0,-1 0,-1 0,-1 0,-10 -6,-11 -13,-12 -11,-1 -20,7 -21,16 0,1 0,2 0,4 3,-3 5,-5 7,-7 5,-7 11,-9 19,-6 2,0 3,3 1,6 -2,2 -4,3 -6,5 -2,3 -5,5 -7,9 -3,4 -3,8 0,10 2,3 8,4 12,2 2,-1 3,-2 5,-4 3,-2 8,-2 12,1 4,2 3,5 2,8 -4,12 -18,21 -30,20 -1,0 -1,1 -2,1 1,3 2,5 5,4 4,0 8,-1 11,-2 9,-5 17,-11 21,-20 1,-1 1,-2 2,-3 4,2 5,5 2,9 -2,2 -3,5 -4,7 -6,9 -13,18 -18,28 -3,5 -7,6 -13,6 -29,1 -58,2 -87,1 -26,0 -51,-8 -75,-15 -12,-4 -24,-8 -35,-11 -5,-2 -9,-3 -14,-4 -1,0 -1,-2 -2,-3 -7,-13 -15,-26 -22,-38 -4,-6 -8,-12 -12,-18 -2,-3 -3,-7 -4,-11 -3,-13 -6,-26 -8,-40 -3,-16 -5,-33 -6,-49 -2,-16 -3,-32 -4,-48 0,-2 0,-4 0,-6 2,-10 0,-21 -3,-31 0,-1 0,-2 0,-4 2,2 3,3 5,4 2,1 4,2 6,-1 9,-15 22,-27 34,-39 5,-4 11,-9 16,-12 3,-2 4,-4 2,-7 -2,-6 -1,-13 -2,-19 0,-2 -1,-3 -1,-4 -1,1 -2,2 -2,3 -1,4 -1,9 -2,13 -1,-6 -3,-12 -4,-17 0,0 -1,0 -2,0 0,4 -1,7 -1,11 -1,-1 -2,-3 -3,-4 -1,-1 -2,-1 -3,-1 -1,1 -1,2 -1,3 -1,3 -1,6 -2,8 0,0 -1,1 -1,1zm3 164c5,-2 10,-4 15,-7 19,-8 36,-20 51,-33 3,-3 5,-5 7,-8 1,-2 1,-4 1,-6 -1,-8 -4,-16 -8,-23 -5,-10 -11,-20 -16,-30 -2,-2 -3,-4 -5,-5 0,0 -1,0 -1,0 0,2 0,3 0,4 1,3 3,5 4,8 7,16 13,32 15,49 0,2 0,3 -1,5 -6,7 -14,11 -21,16 -2,-12 -3,-24 -5,-36 -3,-17 -11,-30 -29,-35 -6,-1 -12,0 -17,3 -7,3 -14,7 -16,16 -3,10 -4,21 -3,31 1,13 3,26 5,39 1,6 3,8 9,9 1,0 3,1 4,1 5,-1 5,2 5,5 -2,9 -1,17 2,25 3,7 5,15 12,20 8,7 17,10 27,10 9,0 19,-2 27,-3 0,0 0,1 -1,2 -7,15 -12,31 -9,48 4,17 8,33 23,44 0,0 1,1 1,1 6,8 7,5 14,2 5,-2 9,-4 14,-6 5,-1 6,-2 4,-7 0,-4 -1,-8 -1,-12 0,0 0,0 1,0 2,4 4,8 6,13 1,-2 1,-3 2,-4 2,2 4,4 6,6 1,0 1,1 2,1 1,-2 2,-5 4,-6 8,-6 16,-12 23,-17 2,-2 3,-4 3,-6 0,-3 -1,-6 -1,-8 3,-2 6,-4 7,-5 5,2 10,4 14,5 3,-2 5,-5 8,-7 4,-3 9,-4 12,-7 2,-2 4,-6 6,-9 3,3 6,1 9,-1 3,-3 6,-5 9,-7 1,0 2,-1 2,-1 3,-5 5,-6 10,-3 2,1 4,1 6,-1 2,-2 4,-4 6,-4 5,-1 6,-2 4,-8 -5,-10 -11,-19 -19,-25 -8,-6 -17,-11 -26,-15 -13,-7 -27,-8 -40,-7 -7,0 -14,1 -20,2 4,-3 4,-8 5,-13 0,-9 -4,-16 -11,-22 -3,-4 -8,-6 -13,-6 -9,-1 -18,1 -26,7 -6,5 -10,12 -10,21 1,-1 2,-2 3,-2 6,-13 16,-19 30,-17 5,0 10,1 12,3 7,9 8,22 -5,28 -2,1 -4,1 -6,2 -8,4 -16,3 -24,0 -5,-2 -12,0 -15,5 -2,3 -2,7 -4,10 -6,9 -15,15 -25,19 -8,3 -17,1 -25,-1 -9,-2 -17,-6 -21,-15 -5,-10 -7,-21 -6,-32zm214 -66c0,-3 0,-6 -1,-8 -3,-10 -7,-20 -11,-30 -3,-9 -9,-17 -18,-21 -8,-4 -16,-7 -25,-8 -6,0 -12,0 -17,2 -21,8 -30,24 -32,45 0,15 1,30 5,45 1,4 3,6 8,6 4,0 8,-1 13,0 4,0 9,0 13,-2 20,-11 41,-20 63,-24 4,-1 8,-3 12,-4 0,-1 0,-1 0,-1 -4,0 -7,0 -10,0zm-134 -85c-5,10 -1,26 6,33 1,0 1,1 3,2 3,1 7,2 10,0 3,-2 6,-4 9,-7 11,-10 21,-20 32,-30 9,-7 20,-11 31,-13 6,0 8,-2 8,-8 0,-5 0,-9 -1,-14 -1,-5 -3,-7 -8,-5 -6,2 -12,3 -18,6 -15,7 -31,12 -42,26 -1,-1 -1,-3 -2,-3 0,-2 -2,-3 -3,-3 -1,0 -3,1 -4,2 -1,2 -1,4 -1,6 -1,2 -1,4 -1,5 -1,-1 0,-3 -1,-5 0,-1 -2,-3 -3,-4 -1,1 -3,2 -4,4 -2,5 -3,11 -5,17 -1,-3 -4,-6 -6,-9zm245 79c4,-4 8,-8 13,-8 3,-1 5,-2 4,-5 0,-3 -2,-3 -4,-3 -5,0 -8,2 -12,5 -8,8 -16,17 -21,28 -2,4 -3,7 -3,11 -1,1 0,2 1,4 1,-1 2,-2 2,-2 1,-1 1,-2 1,-2 5,-7 9,-14 13,-21 2,-3 4,-2 5,0 1,1 2,2 3,3 3,3 7,3 10,1 -4,-4 -8,-7 -12,-11zm-291 -82c0,0 0,0 0,0 0,-1 0,-1 0,-2 0,-1 -1,-3 -2,-4 0,1 -2,2 -2,4 -1,8 -2,17 -3,25 0,1 0,2 1,3 0,0 2,-1 2,-1 1,-1 1,-2 2,-3 1,-8 2,-15 2,-22zm42 43c-6,-9 -12,-19 -14,-31 -5,8 3,24 14,31z"/>
   </g>
   <path class="fil5" d="M811 505c-2,11 -4,21 -5,31 -3,20 -5,39 -8,59 -4,23 -9,46 -13,69 -4,20 -9,39 -14,59 0,2 -1,5 -1,8 0,3 -3,5 -5,7 -25,21 -49,42 -74,62 -17,13 -34,26 -51,39 -1,2 -3,4 -5,5 -5,2 -9,5 -14,7 -5,-5 -8,-12 -10,-19 -6,-18 -11,-36 -16,-54 -2,-7 -5,-14 -8,-20 -1,-4 -2,-7 -3,-10 0,-1 1,-3 2,-4 7,-3 14,-7 21,-10 8,-5 16,-10 25,-14 8,-5 17,-10 26,-15 1,-1 4,0 5,1 15,11 32,12 50,7 12,-4 23,-11 31,-22 6,-8 10,-17 10,-27 -1,-8 -4,-15 -9,-20 -6,-5 -12,-8 -17,-12 -2,-1 -3,-2 -5,-3 5,-3 9,-4 13,-1 5,2 10,0 15,-5 4,-4 4,-8 2,-13 0,-1 -1,-3 -2,-4 -5,-11 -14,-15 -25,-10 -1,1 -1,1 -3,2 0,-8 -1,-15 -1,-23 -1,-25 -1,-51 -2,-76 -1,-6 1,-11 4,-16 10,-16 23,-29 39,-39 0,0 1,-1 2,-1 2,5 6,5 11,3 2,0 4,-1 6,-1 2,-1 5,0 7,0 4,2 8,2 11,0 3,-2 6,-4 8,-6 4,4 6,4 11,2 2,-1 4,-1 6,-1 20,6 41,13 61,22 16,8 33,16 49,25 9,5 16,11 18,22 2,17 6,35 9,52 3,15 5,30 8,44 3,19 3,38 3,57 0,7 -2,11 -7,15 -12,11 -24,22 -37,32 -19,15 -38,28 -57,42 -8,6 -16,12 -24,18 -10,7 -19,13 -28,20 -2,2 -4,2 -6,0 -11,-8 -23,-16 -35,-24 -4,-3 -8,-6 -12,-9 -2,-2 -2,-3 -1,-5 5,-4 7,-9 9,-15 8,-25 13,-51 18,-77 3,-15 7,-31 10,-46 2,-7 5,-13 8,-19 6,-10 9,-20 13,-30 1,-1 0,-3 0,-4 0,0 -1,0 -1,0 -5,8 -9,16 -14,24 0,0 -1,-1 -1,-1 1,-5 3,-11 4,-16 5,-16 9,-31 14,-46 1,-4 2,-7 0,-11 -1,2 -2,3 -2,4 -4,13 -8,25 -12,37 -1,2 -2,3 -3,4 0,-17 3,-33 3,-50 0,0 -1,0 -1,0zm51 169c0,-1 1,-1 1,-1 -1,-1 -2,-2 -3,-2 -4,-2 -8,-5 -10,-9 0,-2 0,-4 1,-5 1,-2 3,-4 6,-6 13,-10 27,-19 39,-32 7,-8 12,-17 19,-26 1,-2 3,-5 6,-7 1,1 1,2 2,3 5,14 11,28 17,42 3,8 2,14 -3,21 -6,7 -12,14 -18,21 -8,7 -16,15 -24,22 4,-2 7,-4 10,-6 11,-7 21,-15 28,-26 4,-6 11,-11 14,-19 1,-2 2,-3 1,-5 -6,-17 -12,-34 -19,-51 -1,-3 -4,-6 -7,-9 -4,-4 -5,-3 -8,1 -7,11 -15,22 -23,32 -6,8 -14,15 -21,21 -8,8 -17,15 -27,19 0,0 -1,2 -1,2 2,3 2,7 5,9 3,4 8,6 12,9 1,1 2,1 3,2zm-94 -154c4,7 6,7 11,2 1,-1 2,-2 3,-3 1,-1 2,-1 4,-1 3,1 6,1 8,0 5,-5 8,-11 6,-18 -1,-6 -4,-11 -7,-15 -8,-9 -22,-12 -34,-4 -2,2 -6,3 -7,6 -4,5 -6,10 -11,14 -5,5 -6,13 5,15 0,0 2,1 2,2 2,7 6,9 13,6 2,-2 5,-3 7,-4zm-19 58c1,1 2,1 2,2 4,2 8,3 11,1 4,-3 10,-4 10,-11 1,-6 -2,-12 -6,-17 -3,-4 -8,-3 -12,-3 -2,0 -4,0 -6,0 -5,0 -8,2 -9,6 -2,2 -3,4 -6,5 -4,2 -6,6 -6,10 1,3 4,5 10,5 0,0 1,1 2,1 4,5 5,5 10,1zm-123 238c-1,6 1,11 6,15 1,1 4,2 5,2 10,-2 17,-4 21,-14 2,-8 1,-15 -4,-20 -4,-4 -15,-5 -20,-1 -7,4 -8,11 -8,18zm247 -140c-1,4 3,7 9,7 -2,-5 -6,-5 -9,-7z"/>
   <g>
    <path class="fil6" d="M247 435c0,-1 0,-2 -1,-3 -12,-11 -22,-23 -35,-32 -5,-4 -10,-8 -17,-9 -6,0 -12,-1 -18,-2 1,-1 2,-2 3,-3 10,-7 20,-13 30,-19 5,-2 9,-4 14,-2 7,2 15,5 22,9 12,7 23,15 32,25 9,10 20,19 29,29 12,14 26,27 37,42 11,17 24,34 36,51 17,24 31,50 43,77 8,16 14,32 20,49 7,17 9,35 12,53 1,11 2,22 3,33 0,0 0,1 -1,0 -2,1 -4,2 -5,3 -5,5 -10,10 -15,14 -1,1 -2,1 -3,2 0,-1 0,-1 0,-2 -1,-16 -4,-33 -8,-49 -1,-5 -3,-9 -5,-14 0,-1 -2,-1 -3,-2 0,2 -1,3 -1,4 3,14 7,28 9,42 2,9 3,17 1,26 -1,3 -3,4 -6,5 -9,3 -17,1 -26,-1 -26,-6 -46,-20 -66,-37 -19,-16 -36,-35 -53,-53 -20,-23 -37,-48 -53,-73 -13,-20 -25,-40 -35,-61 -9,-20 -20,-40 -24,-61 -4,-17 -7,-34 -6,-51 0,-6 1,-11 3,-17 3,-8 13,-15 22,-14 11,0 20,4 28,11 11,9 22,18 33,27 1,1 2,3 3,4 1,0 1,-1 1,-1zm-53 92c1,0 1,0 1,0 0,-3 0,-5 -1,-7 -2,-6 -5,-12 -6,-18 -6,-19 -14,-39 -12,-60 0,-5 3,-9 4,-14 0,0 2,-1 3,-1 4,0 7,0 11,0 1,0 2,2 3,4 0,4 0,10 1,14 7,49 26,93 53,133 9,13 18,27 28,39 10,12 20,22 30,33 6,7 13,13 20,19 17,15 35,27 54,36 7,3 14,6 14,15 0,3 0,5 1,8 0,3 0,7 1,12 -2,-1 -3,-1 -3,-1 -16,-5 -31,-11 -44,-21 -15,-11 -31,-23 -47,-34 -1,-1 -2,-1 -2,-2 -1,0 -1,1 -1,1 2,2 3,5 6,7 10,9 20,18 31,26 11,8 22,15 34,22 8,5 18,7 27,9 3,0 6,0 7,-3 1,-5 3,-10 1,-16 -7,-18 -14,-36 -21,-54 -8,-18 -16,-36 -25,-53 -4,-9 -10,-17 -15,-26 -5,-8 -9,-15 -14,-23 -20,-30 -40,-62 -64,-90 -15,-17 -30,-35 -49,-48 -12,-8 -24,-15 -39,-16 -1,0 -3,1 -4,2 -6,6 -7,15 -8,22 -1,7 1,13 2,19 4,18 9,34 16,51 3,5 5,10 7,15zm115 -25c18,27 37,55 56,82 0,0 1,0 1,-1 -18,-28 -35,-57 -57,-81z"/>
    <g>
     <g>
      <image x="156" y="363" width="301" height="401" xlink:href="11568-causafalsa-ee29576e-245b-4519-a45e-9ba12516a3f7_Images\11568-causafalsa-ee29576e-245b-4519-a45e-9ba12516a3f7_ImgID1.png"/>
     </g>
    </g>
   </g>
   <path class="fil5" d="M640 46c4,4 8,7 11,10 2,1 3,2 5,3 2,2 4,4 6,6 18,18 33,38 42,62 5,13 8,27 12,40 6,15 6,32 8,48 2,14 4,28 4,42 1,5 3,7 6,9 11,5 22,10 33,14 8,3 16,2 24,3 1,0 2,-1 3,-1 5,-5 11,-10 16,-15 2,-2 4,-4 2,-8 -2,2 -4,5 -6,6 -10,11 -23,13 -37,9 -12,-3 -23,-9 -34,-15 0,-2 1,-5 0,-8 0,-2 1,-4 4,-4 4,1 8,1 12,1 12,0 24,-1 37,-1 6,-1 13,0 20,0 8,1 11,3 12,12 2,16 -3,26 -19,35 -11,6 -21,4 -32,1 -14,-4 -28,-11 -40,-20 -19,-13 -38,-26 -57,-39 -18,-12 -38,-20 -57,-30 -17,-9 -34,-19 -49,-32 -14,-12 -29,-23 -43,-34 -11,-8 -22,-16 -34,-24 -7,-5 -15,-9 -23,-13 -2,-1 -3,-2 -4,-3 -4,-2 -5,-5 -4,-10 3,-19 13,-35 25,-48 13,-15 30,-23 50,-22 17,0 34,2 50,5 13,2 24,7 36,11 9,4 14,10 17,19 2,12 7,23 9,35 5,21 5,42 4,64 0,15 -2,31 -3,47 -7,-2 -13,-5 -19,-7 -2,-1 -4,-2 -6,-3 -1,0 -3,1 -4,1 1,1 1,2 2,3 3,1 6,3 9,4 15,7 30,14 45,21 4,2 7,5 10,7 2,1 4,1 7,3 0,-4 -2,-6 -4,-7 -11,-7 -21,-13 -32,-20 4,-52 6,-105 -15,-155 0,-1 1,-1 1,-2zm27 45c-3,-6 -5,-13 -8,-19 -1,-1 -3,-2 -4,-2 0,1 -1,2 0,3 1,6 2,12 4,17 0,1 1,3 1,3 1,1 3,2 4,2 1,0 2,-2 3,-4zm-3 50c0,0 0,0 0,0 0,3 0,5 1,8 0,1 2,2 3,3 1,-1 2,-3 3,-4 0,-3 -1,-5 -1,-8 -1,-2 -1,-5 -4,-5 -3,0 -2,4 -2,6 0,0 0,0 0,0zm7 30c0,-2 0,-4 -1,-6 -1,-1 -3,-2 -4,-2 -1,1 -2,2 -2,3 0,2 0,4 1,6 0,3 -1,6 3,6 4,0 3,-4 3,-7zm-10 -57c0,0 0,0 0,0 0,2 0,4 1,6 0,1 2,2 4,3 0,-1 2,-2 2,-4 0,-2 0,-5 -1,-8 -1,-1 -3,-2 -4,-3 -1,1 -1,3 -2,4 0,1 0,1 0,2zm50 137c2,-1 4,-2 4,-3 0,0 -1,-2 -2,-3 -3,-1 -6,-3 -9,-4 -1,-1 -2,-1 -3,-1 0,1 0,3 0,3 3,3 7,5 10,8zm-238 -172c-5,1 -10,7 -10,11 0,1 1,2 2,3 1,0 2,-1 2,-2 2,-2 3,-4 4,-6 1,-2 1,-3 2,-6zm10 -22c-4,1 -8,6 -8,10 0,1 1,3 3,2 2,-1 6,-9 5,-12zm186 136c-1,0 -1,0 -1,0 0,-1 0,-1 0,-2 -1,-1 -2,-3 -3,-5 -1,2 -2,4 -3,6 0,0 0,0 0,1 0,2 1,4 3,4 2,0 3,-3 4,-4zm-176 -152c-2,2 -4,4 -5,6 0,0 1,1 2,2 2,-2 3,-3 5,-5 0,-1 -1,-2 -2,-3zm12 -8c0,0 -1,-1 -1,-1 -1,2 -3,3 -4,5 1,0 1,1 2,1 2,-1 3,-2 3,-5z"/>
   <path class="fil4" d="M520 914c3,-4 6,-7 8,-11 1,-3 -2,-5 -5,-7 -2,3 -4,5 -6,8 -3,6 -13,8 -18,5 -4,-3 -5,-12 -2,-15 2,-2 5,-4 7,-5 0,0 1,0 1,1 2,0 3,0 5,1 0,-3 3,-5 0,-7 -3,-3 -5,-6 -8,-9 -4,-5 -5,-5 -9,0 1,2 2,4 3,6 -1,2 -3,5 -5,8 -4,4 -9,4 -14,-1 -3,-4 -5,-7 -7,-11 -2,-4 1,-8 5,-9 2,0 4,-1 7,-2 2,-1 4,-2 6,-3 1,-1 2,-2 2,-3 -1,-2 -3,-4 -5,-6 -2,-2 -4,-4 -7,-6 0,0 0,0 0,0 2,7 -1,13 -8,16 -4,2 -9,5 -14,7 -3,1 -7,0 -11,1 -7,0 -9,-5 -10,-10 -2,-6 -3,-12 -4,-18 -1,-1 0,-3 1,-4 10,-6 19,-12 29,-17 9,-6 20,-11 29,-17 3,-1 6,-3 8,-5 5,-4 10,-8 15,-12 4,-4 8,-8 11,-12 1,0 2,-1 2,-2 -1,-2 -1,-4 -2,-6 -1,1 -3,2 -4,3 -3,2 -5,5 -8,7 -5,3 -8,1 -9,-4 0,-2 -1,-5 -1,-7 0,-1 1,-2 2,-3 5,-3 10,-6 15,-10 5,-3 10,-4 16,-2 8,2 16,4 24,6 4,1 8,2 12,4 4,1 7,5 8,9 6,22 12,45 18,67 2,6 4,12 6,18 -5,4 -9,9 -14,12 -11,10 -22,19 -34,28 -7,4 -13,9 -19,16 -6,6 -9,6 -16,1z"/>
   <path class="fil4" d="M148 320c2,2 3,4 4,5 3,3 6,6 9,8 1,1 3,1 4,0 0,-1 0,-3 0,-5 0,0 0,-1 -1,-1 -10,-6 -15,-16 -21,-26 -1,-2 -2,-3 -4,-5 -3,8 3,13 6,20 -5,2 -6,6 -6,11 -1,3 0,7 0,10 0,1 2,2 2,3 2,1 3,2 4,3 3,5 7,9 10,14 6,7 18,7 23,-1 2,-2 3,-5 4,-8 6,5 13,4 20,5 2,0 5,-2 6,-3 2,-3 4,-4 7,-2 5,1 9,0 13,-2 1,0 3,0 4,0 3,1 6,3 9,4 3,2 4,3 3,6 0,4 -2,6 -5,6 -5,1 -9,1 -13,-1 -3,-2 -7,-2 -10,-1 -11,5 -21,8 -32,13 -11,5 -22,12 -35,16 -2,1 -3,2 -5,2 -1,-3 -1,-6 -2,-9 4,0 7,1 10,1 3,0 6,0 8,-4 -3,0 -6,0 -9,0 -2,0 -4,0 -5,-1 -4,0 -6,-2 -7,-6 -9,-27 -10,-55 -9,-83 1,-9 1,-18 2,-27 0,-1 1,-3 2,-3 15,-9 31,-18 46,-26 7,-4 15,-8 23,-11 5,-2 11,-4 16,-8 3,-2 7,-1 11,0 8,1 16,2 24,3 5,1 9,3 14,6 9,4 18,9 27,14 1,1 2,2 3,2 0,1 1,2 1,2 6,-1 5,5 7,8 6,9 13,18 19,26 3,5 3,4 -1,9 -5,5 -11,6 -18,3 -2,0 -3,-1 -4,-2 -9,-9 -14,-21 -18,-33 0,0 0,-1 0,-1 -1,-1 -2,-2 -3,-3 0,1 -1,2 -2,3 0,1 0,2 0,4 -4,-1 -8,-1 -12,-3 -5,-1 -10,-3 -15,-5 -4,-2 -5,-2 -4,3 -1,0 -1,0 -2,1 -7,2 -7,2 -9,-5 -1,-2 -2,-4 -2,-6 -1,-4 -2,-7 -7,-6 2,11 6,21 11,31 5,7 9,14 13,22 1,2 1,5 0,7 0,3 -1,5 -2,8 -15,-2 -26,10 -26,24 0,3 -1,6 -2,9 -2,6 -3,6 -8,3 4,-12 8,-25 13,-38 -9,-17 -16,-35 -22,-54 -1,-3 -3,-3 -5,-2 -1,0 -2,2 -2,3 0,3 1,5 2,7 6,15 12,30 18,45 1,3 1,6 0,8 -4,11 -8,23 -12,33 -2,4 -7,7 -11,9 -4,2 -9,-1 -11,-5 0,-1 0,-1 0,-2 4,-7 7,-15 11,-22 0,-1 1,-2 0,-3 -1,-2 -2,-5 -3,-8 -4,-10 -9,-21 -13,-31 -2,-4 -3,-8 -5,-12 0,-1 -2,-2 -2,-1 -1,0 -3,1 -3,2 1,4 1,7 2,10 4,12 9,24 15,35 1,2 1,5 0,7 -3,9 -7,19 -9,28 -1,3 -6,5 -9,7 -5,2 -7,2 -10,-3 -4,-5 -8,-9 -12,-14 -4,-4 -2,-14 2,-17zm59 -19c-1,1 -2,2 -3,3 1,1 2,2 3,2 1,-1 2,-2 3,-2 0,-1 -1,-2 -3,-3z"/>
   <path class="fil7" d="M800 995c1,-3 1,-6 1,-8 -1,-29 -2,-58 -4,-86 -1,-16 -2,-32 -3,-48 -1,-16 -2,-31 -2,-46 -1,-8 -1,-16 -1,-25 4,3 7,5 10,7 5,4 10,7 15,10 3,2 6,2 7,-2 0,-1 1,-1 1,-2 29,-22 57,-44 86,-65 1,-2 3,-3 5,-3 -1,2 -1,3 -2,5 -10,25 -20,50 -29,75 -9,27 -19,54 -27,81 -5,15 -8,31 -12,47 0,1 -1,2 -2,2 -4,1 -9,2 -13,3 -4,1 -8,3 -10,8 -1,1 0,2 -1,3 2,0 3,1 4,1 1,0 2,-1 3,-1 1,0 2,2 3,2 -1,1 -2,2 -2,2 -10,4 -17,10 -24,16 -1,1 -1,3 -1,4 2,0 3,0 4,0 8,-5 16,-10 25,-12 6,-1 20,4 23,9 1,2 2,5 1,7 -2,5 -5,9 -8,13 -1,1 -2,2 -3,2 -3,0 -7,-1 -11,-2 2,-6 7,-14 3,-22 0,0 -1,0 -1,0 -3,8 -5,16 -8,24 -9,1 -18,4 -27,1z"/>
   <path class="fil2" d="M810 309c-2,10 -5,19 -7,28 -3,10 -6,21 -8,32 -1,7 -5,10 -11,12 -7,3 -11,8 -13,16 0,1 -1,3 -2,4 -6,1 -9,6 -13,10 -1,0 -2,1 -3,2 -8,3 -11,11 -11,20 0,4 3,8 5,12 -4,5 -9,10 -13,16 -7,9 -13,18 -20,27 -1,2 -1,5 -1,7 0,34 2,68 3,103 0,2 -1,4 -3,5 -6,2 -9,6 -9,12 0,4 2,6 6,7 2,1 4,1 6,2 0,1 0,1 0,2 -4,-1 -9,-2 -13,-4 -1,0 -2,-4 -2,-6 0,-9 0,-19 1,-28 2,-15 6,-29 5,-44 -1,-7 -2,-15 -4,-21 -2,-9 -8,-15 -16,-18 -3,-2 -2,-3 -2,-5 2,-6 4,-12 4,-19 2,-20 3,-41 5,-62 1,-9 1,-18 1,-27 1,-3 1,-5 5,-6 4,-2 7,-5 11,-7 11,-7 22,-13 33,-20 15,-10 30,-22 46,-33 5,-4 10,-9 15,-13 1,-1 3,-2 5,-4z"/>
   <path class="fil8" d="M693 620c-7,2 -13,3 -19,5 -3,1 -7,2 -6,6 0,1 5,2 8,2 3,0 6,-1 8,-2 14,-4 26,0 38,6 8,4 16,9 21,18 4,7 3,18 -3,24 0,0 0,1 -1,1 -12,8 -32,9 -44,1 -10,-7 -19,-14 -25,-24 -2,-3 -3,-6 -5,-9 0,0 -1,0 -1,1 1,3 1,7 2,10 11,16 24,27 43,31 8,1 17,1 26,1 -3,3 -7,6 -10,8 -13,7 -27,10 -41,7 -18,-4 -28,-17 -31,-35 -2,-18 3,-34 6,-51 4,-18 8,-35 10,-53 2,-11 0,-22 -5,-33 -3,-7 -19,-17 -29,-13 -2,1 -5,1 -8,1 -1,0 -3,-1 -3,-1 -1,-2 0,-4 0,-4 5,-3 9,-5 13,-7 5,-1 10,-1 15,-2 7,0 14,-1 21,0 17,3 26,21 27,33 1,13 -1,26 -3,40 -2,9 -3,20 -4,29 0,4 0,7 0,10zm-5 16c-7,0 -10,4 -8,11 1,2 1,3 2,4 3,3 7,8 10,11 8,6 17,10 28,10 5,0 8,-3 11,-7 1,-4 -1,-8 -3,-11 -1,-1 -2,-1 -2,-2 -11,-11 -24,-15 -38,-16z"/>
   <path class="fil7" d="M756 966c-3,7 0,14 1,20 -1,1 -1,1 -2,1 -1,-2 -3,-3 -3,-5 -1,-6 -2,-12 -3,-19 0,-2 1,-3 4,-3 7,1 14,3 22,4 2,0 4,0 7,0 2,0 3,-1 2,-3 -1,-2 -2,-3 -3,-5 -3,-4 -4,-7 -7,-11 -2,-2 -4,-4 -7,-5 -3,-1 -4,-2 -4,-5 -3,-17 -5,-34 -9,-51 -5,-21 -11,-41 -16,-62 -1,-3 -2,-6 3,-8 3,0 3,-3 4,-6 1,-14 3,-27 5,-41 1,-3 4,-5 6,-7 1,-1 3,0 4,0 6,5 13,9 19,13 1,1 2,3 2,4 2,21 4,41 5,62 1,20 2,41 3,61 2,30 3,59 5,88 1,8 -2,9 -9,8 -7,-2 -13,-4 -20,-6 -1,0 -3,-2 -3,-3 -1,-5 -2,-10 -3,-16 -1,-2 -1,-3 -2,-5 0,0 0,0 -1,0z"/>
   <path class="fil9" d="M615 1050c12,2 23,4 35,4 19,1 38,1 57,1 1,0 3,0 4,-1 2,-1 2,-2 3,-3 -1,-1 -2,-3 -4,-3 -5,0 -10,1 -15,1 -13,0 -27,1 -41,0 -8,0 -15,-1 -22,-2 -6,-2 -11,-5 -17,-8 -2,-1 -3,-3 -4,-5 -1,-4 -3,-8 -4,-12 -1,-6 2,-14 6,-17 1,0 3,0 4,0 14,10 30,13 46,16 3,0 7,2 11,2 10,2 20,4 30,4 13,-1 27,-2 40,-5 7,-1 11,3 16,6 3,1 5,3 6,0 2,-3 1,-5 -2,-7 -3,-2 -7,-4 -11,-6 2,-4 5,-7 7,-11 1,-1 2,-3 3,-5 0,-1 -1,-2 -1,-3 -1,0 -2,0 -3,1 -3,5 -6,10 -10,15 -5,-3 -5,-4 -3,-8 0,-1 1,-1 1,-1 8,-11 6,-10 19,-7 6,1 10,3 15,5 3,1 3,3 2,6 -3,5 -7,10 -10,16 -1,2 -2,3 -3,5 0,1 1,2 1,3 1,0 2,0 3,0 1,-1 1,-2 2,-2 3,-7 6,-13 9,-20 1,-2 2,-5 4,-7 0,6 0,11 0,16 0,12 -7,22 -13,31 0,1 -1,1 -2,2 -23,6 -45,14 -70,13 -7,0 -15,1 -22,1 -13,0 -26,-1 -39,-2 -5,0 -11,-1 -17,-2 -3,-1 -5,-4 -8,-6 -1,-1 -2,-2 -3,-3 0,-1 0,-1 0,-2z"/>
   <path class="fil9" d="M849 1022c-16,3 -31,5 -47,8 0,0 0,0 0,1 1,0 3,1 5,1 16,1 32,1 48,-1 18,-3 35,-5 52,-7 0,-1 -1,-2 -1,-2 4,-1 6,0 7,3 2,7 4,13 4,20 0,3 -1,3 -3,4 -12,1 -24,2 -36,4 1,0 3,0 4,1 0,0 0,0 0,1 -12,1 -23,3 -34,5 0,1 0,1 0,1 1,0 3,1 4,1 13,-2 26,-3 39,-4 9,-1 18,-1 27,-2 1,0 2,1 3,2 1,2 -1,3 -3,4 -9,1 -19,3 -28,5 -31,6 -63,6 -94,4 -8,0 -12,-3 -13,-9 6,1 13,1 19,2 6,0 12,-1 18,-2 -3,0 -6,0 -9,-1 -8,-4 -16,-2 -25,-3 -4,0 -5,0 -3,-5 3,-5 6,-11 8,-17 2,-6 3,-13 5,-20 0,-1 0,-1 0,-2 0,-7 0,-7 7,-8 4,-1 9,-1 13,-2 0,0 1,0 1,0 1,4 2,8 3,12 1,2 2,3 4,5 1,0 2,0 4,0 0,-1 0,-2 -1,-3 -2,-5 -4,-10 -5,-14 2,-2 4,-4 6,-5 3,-1 7,-1 8,2 5,6 9,13 13,19 0,0 0,1 0,2z"/>
   <path class="fil10" d="M672 322c-3,6 -7,11 -10,17 -1,0 -2,0 -2,0 1,-9 3,-18 4,-27 1,-2 1,-4 1,-7 0,-1 -1,-1 -2,-2 -1,0 -2,1 -2,2 -3,6 -6,12 -10,17 -1,2 -3,3 -5,4 2,-17 -1,-33 -2,-50 -1,-16 -5,-32 -10,-49 5,3 9,5 13,7 20,12 40,24 59,36 5,4 11,7 16,11 12,8 25,16 40,19 1,1 2,1 4,2 -5,0 -10,-1 -14,-1 -1,0 -3,1 -4,1 1,1 2,3 3,3 7,1 14,2 21,3 1,0 2,-1 3,-1 0,1 2,1 2,2 0,0 0,2 -1,2 -1,1 -2,1 -3,2 -1,1 -2,2 -4,3 2,1 5,3 6,2 4,-2 8,-5 11,-8 2,-1 3,-3 5,-1 1,0 0,3 0,5 -1,1 -2,3 -2,4 0,0 0,1 1,1 -13,10 -27,19 -40,30 0,-4 -1,-8 0,-10 2,-3 5,-4 7,-5 1,-1 3,-1 4,-2 1,-1 1,-3 -2,-4 -7,-2 -12,-7 -15,-15 -3,-7 -8,-12 -15,-16 -4,-3 -9,-6 -14,-7 -7,-1 -12,1 -17,4 -1,1 -2,1 -4,2 1,-2 2,-3 2,-5 1,-1 1,-3 1,-4 0,-1 -1,-3 -2,-4 -1,1 -3,1 -3,2 -2,6 -5,11 -6,16 -3,16 -5,31 -7,47 -1,6 -2,12 -3,18 0,0 0,0 -1,0 0,-5 -1,-10 -1,-15 -1,-4 -1,-9 -1,-14 0,-5 0,-10 0,-15 0,0 -1,0 -1,0z"/>
   <path class="fil5" d="M448 579c12,3 24,6 36,9 26,5 53,7 80,7 3,0 4,1 6,3 6,6 12,11 18,17 2,2 4,3 3,6 -2,4 -4,5 -8,5 -34,-2 -68,1 -102,7 -9,2 -19,4 -28,6 -3,1 -5,0 -5,-3 0,0 0,-1 -1,-2 -5,-8 -3,-16 -1,-25 1,-4 1,-8 1,-12 0,-6 0,-11 1,-18z"/>
   <path class="fil2" d="M642 701c-9,6 -17,11 -25,17 -3,1 -4,1 -6,0 -23,-16 -40,-36 -57,-57 -6,-7 -12,-14 -18,-21 -1,-1 -1,-2 -2,-3 5,-1 10,-1 15,-1 11,0 23,1 34,2 4,0 9,1 13,3 2,0 4,3 5,4 6,11 12,22 19,32 5,8 12,14 18,21 1,1 2,1 4,3z"/>
   <path class="fil3" d="M822 431c-3,8 -6,8 -16,4 -2,1 -4,3 -6,5 -3,2 -6,3 -10,1 -2,-1 -6,-1 -9,-1 -3,1 -5,2 -8,3 -1,0 -3,-1 -4,-1 0,-1 0,-3 0,-3 -3,-1 -7,-1 -10,-2 -1,0 -2,1 -3,1 -2,1 -4,3 -5,4 -5,-4 -7,-9 -5,-15 2,-5 4,-10 11,-12 3,-1 5,-4 8,-5 2,-2 4,-3 7,-4 3,-1 4,-3 5,-6 0,-9 6,-13 13,-18 1,-1 3,-1 5,-1 4,1 8,1 12,2 1,0 2,2 3,3 1,3 2,3 5,1 3,-2 7,-5 11,-2 5,2 7,6 7,12 0,6 1,12 1,18 1,7 -3,11 -8,15 -1,1 -2,1 -4,1z"/>
   <path class="fil2" d="M662 557c1,2 1,4 1,6 1,13 -1,25 -5,38 -2,10 -5,19 -8,29 -3,14 -5,29 -4,44 1,5 3,10 5,15 0,1 1,3 2,4 -6,4 -6,4 -11,0 -17,-17 -31,-36 -39,-59 -3,-6 -2,-8 2,-12 15,-16 31,-30 42,-48 2,-3 5,-5 7,-7 1,-1 2,-3 3,-4 2,-2 3,-4 4,-6 1,0 1,0 1,0zm-19 84c-2,-3 -3,-7 -5,-9 -4,-4 -10,-5 -16,-3 -1,0 -2,2 -3,3 -1,2 -1,3 -2,5 0,1 -1,3 0,5 2,4 5,9 8,14 4,5 9,5 12,-1 3,-4 4,-9 6,-14z"/>
   <path class="fil11" d="M472 735c5,7 10,15 15,22 1,2 2,4 4,5 3,3 4,10 1,13 -8,7 -16,14 -25,20 -5,4 -11,6 -16,9 -1,0 -4,0 -4,-1 -7,-6 -14,-12 -18,-20 0,-1 -1,-2 -1,-3 -3,-5 -1,-9 4,-12 4,-3 8,-6 12,-9 3,-2 7,-5 10,-8 6,-5 14,-8 16,-16 1,0 1,0 2,0zm-1 39c4,0 8,-4 7,-8 0,-4 -4,-10 -7,-10 -4,0 -8,5 -8,9 0,5 4,9 8,9z"/>
   <path class="fil2" d="M451 93c-9,-2 -18,-6 -27,-7 -9,-1 -18,0 -27,0 7,-19 66,-57 90,-58 -18,18 -32,39 -36,65z"/>
   <path class="fil12" d="M582 928c-15,0 -23,-6 -28,-16 0,-1 0,-4 1,-4 8,-7 16,-13 24,-19 4,-3 9,-6 13,-9 2,-2 4,-2 6,1 10,10 9,27 2,37 -4,6 -13,10 -18,10z"/>
   <path class="fil4" d="M246 308c10,1 18,3 24,10 2,1 3,4 3,6 -1,6 -3,13 -4,20 -1,1 -2,2 -3,3 -12,6 -29,1 -35,-11 -3,-5 -2,-11 1,-16 2,-4 5,-7 8,-10 1,-1 4,-1 6,-2z"/>
   <path class="fil10" d="M384 250c4,5 4,5 7,3 2,1 4,2 5,2 1,0 2,-2 3,-3 4,5 5,5 -1,9 -12,8 -19,20 -28,31 -4,4 -7,9 -10,14 -2,3 -7,3 -10,0 -4,-2 -6,-5 -4,-8 2,-3 3,-6 6,-9 9,-12 19,-23 29,-35 1,-1 2,-2 3,-4z"/>
   <path class="fil3" d="M684 31c0,8 -2,13 -9,18 -4,3 -9,3 -13,1 -4,-1 -7,-9 -5,-13 3,-7 5,-13 2,-21 0,-1 0,-2 1,-2 3,-2 7,-5 10,-4 3,0 6,3 8,6 4,4 7,9 6,15z"/>
   <path class="fil10" d="M330 354c-1,-10 2,-21 6,-31 1,-2 1,-4 1,-6 -1,-1 -1,-1 -2,-1 -3,5 -6,10 -10,15 0,0 0,0 -1,0 1,-2 2,-4 2,-6 4,-10 7,-20 10,-31 1,-1 0,-2 -1,-4 -1,1 -2,1 -3,2 -2,1 -3,3 -5,5 0,-6 4,-10 7,-14 1,-2 2,-4 1,-5 -1,-3 -1,-5 0,-8 1,-7 3,-14 4,-21 3,1 4,4 4,7 0,10 0,20 0,29 0,10 -3,20 0,30 1,2 0,5 0,7 -4,11 -8,22 -12,33 0,0 -1,0 -1,-1z"/>
   <path class="fil2" d="M741 773c0,2 1,3 0,5 -1,9 -2,18 -3,27 -1,3 -3,4 -5,3 -9,-3 -17,-2 -26,-1 -2,0 -4,-1 -6,-1 0,-1 0,-1 0,-2 3,-2 6,-5 9,-7 6,-5 13,-10 20,-15 1,-1 2,-3 4,-4 2,-2 4,-3 6,-5 1,0 1,0 1,0z"/>
   <path class="fil3" d="M711 614c1,-9 6,-14 16,-11 1,0 3,0 3,0 4,-4 9,-3 12,-1 4,2 5,6 5,11 0,4 -1,6 -5,8 0,0 0,0 -1,0 -5,-3 -10,2 -15,0 -1,0 -3,0 -4,0 -2,-1 -4,-2 -6,-3 -2,-1 -3,-2 -5,-4z"/>
   <path class="fil12" d="M466 812c-1,-2 -2,-3 -3,-5 2,-1 4,-3 6,-4 8,-7 16,-13 25,-19 1,-1 3,0 4,0 1,1 2,4 1,4 -3,4 -5,8 -9,10 -7,5 -14,9 -22,13 0,1 -1,1 -2,1z"/>
   <path class="fil5" d="M639 35c-5,0 -8,-2 -9,-5 -2,-5 -1,-12 2,-14 2,-1 4,-2 6,-2 6,1 12,8 11,14 -1,5 -3,7 -10,7z"/>
   <path class="fil2" d="M416 569c8,3 15,5 22,8 -1,9 -2,18 -3,28 -6,-12 -12,-23 -19,-36z"/>
   <path class="fil2" d="M147 429c-7,-7 -11,-14 -12,-23 8,-4 15,-9 22,-13 -5,12 -11,22 -10,36z"/>
   <path class="fil3" d="M631 10c-4,5 -8,9 -12,14 0,-4 -1,-7 -1,-10 1,-2 2,-5 4,-6 3,-1 7,-1 9,2z"/>
   <path class="fil2" d="M527 647c-8,-1 -15,-2 -23,-3 0,0 0,-1 0,-1 7,0 13,-1 20,-1 1,0 2,3 4,4 0,0 -1,1 -1,1z"/>
   <path class="fil3" d="M344 339c2,3 2,8 2,11 0,3 -2,5 -4,7 0,0 0,0 -1,-1 1,-5 1,-11 1,-17 1,0 1,0 2,0z"/>
   <path class="fil13" d="M148 839c-3,-15 1,-28 8,-40 6,-8 11,-18 14,-28 3,-7 1,-15 1,-23 0,-4 -1,-7 -2,-10 -4,-14 -23,-23 -36,-17 -7,3 -9,8 -8,15 2,10 7,18 15,23 4,3 4,6 3,10 0,4 -2,8 -6,9 -6,2 -15,-1 -20,-6 -15,-21 -12,-38 0,-56 2,-4 6,-7 10,-9 10,-6 22,-7 33,-6 19,2 57,36 13,100 -6,9 -11,18 -11,28 1,4 -1,6 -4,7 -3,1 -7,2 -10,3z"/>
   <path class="fil13" d="M149 878c3,2 6,2 8,0 6,-3 10,0 9,6 0,4 -2,8 -4,11 -1,1 -3,2 -4,2 -4,-2 -8,-3 -11,-6 -4,-3 -3,-7 2,-13z"/>
   <path class="fil10" d="M537 513c-4,-8 -8,-16 -13,-24 0,1 -1,1 -1,1 1,6 4,12 7,18 3,5 7,11 10,16 -8,7 -16,13 -25,20 -2,2 -4,1 -6,-1 -4,-7 -8,-14 -11,-22 -2,-5 -4,-10 -6,-14 0,-1 -1,-2 -2,-3 -1,1 -2,3 -2,4 1,4 3,8 4,12 0,2 1,5 1,7 -1,7 -2,14 -2,21 -1,2 -2,3 -3,4 -1,-1 -3,-1 -3,-2 -3,-5 -5,-9 -8,-14 -1,-1 -2,-2 -3,-3 0,2 -1,3 -1,5 3,6 6,12 9,19 -2,2 -5,2 -8,0 -4,-4 -7,-9 -10,-13 -11,-19 -15,-38 -10,-59 3,-12 11,-21 18,-29 -1,10 -3,20 -5,30 0,0 1,0 1,0 6,-12 5,-26 15,-36 -1,5 -2,11 -3,16 -2,10 -4,19 -2,29 0,1 0,2 0,3 0,1 1,2 1,3 1,-1 2,-2 2,-3 1,-8 1,-15 2,-22 1,-10 4,-19 7,-27 5,14 10,28 14,42 1,0 2,0 2,-1 -2,-13 -5,-26 -8,-39 0,0 1,0 1,0 2,3 3,6 5,10 0,0 1,-1 1,-1 -2,-6 -4,-12 -7,-19 2,1 4,1 4,2 6,6 12,13 18,19 3,3 6,5 8,7 1,1 2,2 3,4 2,3 5,6 8,9 -9,-15 -17,-31 -34,-42 6,-1 11,-2 16,-3 2,-1 4,-1 6,-2 10,-6 21,-6 32,-5 13,2 25,6 37,11 15,5 25,16 32,29 1,1 1,4 0,4 -2,2 -4,3 -6,0 -4,-3 -7,-6 -12,-7 0,0 -1,0 -1,1 2,2 4,5 7,8 0,0 0,0 -1,0 -8,3 -8,3 -13,-4 -1,-3 -3,-5 -5,-7 -1,-1 -2,-2 -2,-2 -5,0 -6,-4 -9,-7 -4,-5 -9,-10 -16,-11 15,12 23,28 35,41 -6,6 -12,5 -19,3 -7,-3 -8,-10 -14,-13 -1,0 -1,-1 -3,-2 4,7 7,13 10,19 3,6 2,6 -2,10 -1,0 -2,1 -3,2 -3,-4 -7,-8 -10,-12 -1,-2 -3,-3 -4,-5 -1,-1 -2,-1 -3,-1 0,1 0,2 0,3 3,6 7,11 10,17 0,1 0,2 1,4 -4,-5 -5,-4 -6,0 -12,-5 -21,-15 -30,-24 0,0 0,1 -1,1 5,7 9,14 14,22 0,0 -1,0 -1,0 -1,0 -3,-1 -4,-1 -1,0 -1,2 -3,4z"/>
   <path class="fil3" d="M418 391c0,-2 -1,-3 -1,-4 -4,3 -7,5 -12,2 0,0 -1,0 -1,0 -5,2 -8,1 -9,-3 -1,-4 1,-8 6,-9 0,0 0,0 0,0 1,-4 2,-7 3,-10 -5,-4 -12,-5 -18,-2 -7,3 -13,5 -16,12 -1,-1 -2,-3 -2,-5 -1,-12 -1,-24 2,-36 3,-7 7,-12 14,-15 9,-4 17,-3 26,2 6,4 9,10 11,16 2,14 4,29 6,43 0,1 -1,3 -2,4 -2,2 -4,3 -7,5z"/>
   <path class="fil3" d="M380 401c-4,-1 -6,-3 -5,-6 0,-1 1,-2 2,-3 2,2 4,4 6,6 0,0 -2,2 -3,3z"/>
   <path class="fil3" d="M542 334c-10,-3 -23,-7 -34,0 -2,-14 2,-27 12,-39 5,-7 14,-9 23,-8 4,1 9,1 13,1 14,1 23,9 29,20 3,6 4,12 6,17 2,5 3,10 5,15 1,2 1,4 2,6 -13,4 -25,8 -38,12 0,-2 -1,-5 -2,-7 -4,1 -8,1 -11,2 -1,0 -2,1 -2,1 -3,4 -7,4 -11,1 -3,-2 -3,-8 0,-11 1,-1 3,-2 5,-4 1,-1 2,-4 3,-6z"/>
   <path class="fil3" d="M521 365c-2,1 -4,3 -5,2 -1,0 -2,-2 -2,-3 0,-1 2,-2 2,-2 2,0 3,1 5,3z"/>
   <path class="fil10" d="M486 263c1,1 2,3 3,4 0,1 2,3 2,2 1,0 3,-1 3,-2 1,-4 1,-7 2,-12 1,3 2,6 3,8 1,1 2,1 3,2 1,-1 2,-2 2,-3 -1,-6 1,-10 5,-12 12,-6 25,-13 37,-18 5,-3 11,-5 17,-7 0,5 1,10 1,14 0,1 -2,2 -3,2 -4,2 -9,3 -14,5 -8,2 -15,6 -21,11 -10,10 -21,19 -32,28 -2,1 -3,2 -5,3 -5,3 -9,1 -11,-4 -1,-2 -1,-5 -2,-8 2,0 4,0 5,0 1,-4 3,-9 4,-13 0,0 1,0 1,0z"/>
   <path class="fil3" d="M790 515c-8,-8 -11,1 -16,3 -3,-5 -4,-5 -10,-2 -3,1 -6,3 -11,5 1,-7 -2,-9 -7,-10 -3,0 -4,-2 -3,-5 3,-3 5,-7 9,-7 2,-1 4,-2 4,-4 0,-5 3,-7 7,-10 9,-5 19,-2 25,4 1,1 1,2 2,3 1,2 2,4 3,7 1,1 2,3 2,4 -1,4 -3,7 -5,12z"/>
   <path class="fil3" d="M745 572c-3,-6 -7,-1 -12,-3 2,-2 4,-3 6,-4 2,0 3,-1 4,-4 1,-2 3,-4 7,-4 1,0 3,0 4,0 7,0 12,6 11,12 0,2 -4,4 -6,6 -1,0 -4,-1 -5,-2 -4,-4 -5,-4 -9,-1z"/>
   <path class="fil3" d="M651 813c0,5 -3,10 -8,13 -5,4 -12,-1 -13,-8 -1,-6 5,-14 11,-16 6,-1 10,3 10,11z"/>
   <path class="fil14" d="M391 702c-5,-2 -9,-3 -13,-6 -10,-6 -20,-13 -30,-20 -18,-13 -34,-30 -49,-48 -9,-12 -21,-23 -29,-36 -14,-21 -27,-43 -39,-65 -4,-7 -6,-15 -9,-22 19,18 39,36 64,47 -15,-17 -33,-30 -51,-43 -5,-4 -10,-8 -15,-13 -1,-1 -2,-2 -2,-3 -6,-17 -10,-35 -12,-52 0,-3 0,-5 1,-7 2,1 4,2 5,3 15,10 26,23 38,36 11,13 21,27 32,40 14,16 25,34 37,51 0,1 1,2 2,4 -6,-3 -11,-6 -16,-8 0,0 0,1 0,1 0,1 1,2 2,2 5,3 9,5 14,8 1,0 3,1 4,2 10,17 20,34 30,50 13,21 21,43 31,65 2,4 4,9 5,14 0,0 0,0 0,0z"/>
   <path class="fil3" d="M635 641c-1,3 -2,6 -3,9 -2,3 -6,3 -8,0 -3,-6 0,-13 7,-14 4,-1 3,2 4,5z"/>
  </g>
  <g id="_546329832400">
  </g>
  <g id="_546329830576">
  </g>
  <g id="_546329830448">
  </g>
  <g id="_546329879504">
  </g>
  <g id="_546329871760">
  </g>
  <g id="_546329871696">
  </g>
  <g id="_546329872336">
  </g>
  <g id="_546329870864">
  </g>
  <g id="_546329870736">
  </g>
  <g id="_546329871984">
  </g>
  <g id="_546329868752">
  </g>
  <g id="_546329868848">
  </g>
  <g id="_546329869776">
  </g>
  <g id="_546329869296">
  </g>
  <g id="_546329868976">
  </g>
  <g id="_546329870224">
  </g>
  <g id="_546329870512">
  </g>
  <g id="_546329867440">
  </g>
  <g id="_546329868240">
  </g>
  <g id="_546329867728">
  </g>
  <g id="_546329866896">
  </g>
  <g id="_546329867024">
  </g>
  <g id="_546329866992">
  </g>
  <g id="_546329865904">
  </g>
  <g id="_546329865744">
  </g>
  <g id="_546329866544">
  </g>
  <g id="_546329865648">
  </g>
 </g>
</svg>
