<?xml version="1.0" encoding="UTF-8"?>
<!DOCTYPE svg PUBLIC "-//W3C//DTD SVG 1.1//EN" "http://www.w3.org/Graphics/SVG/1.1/DTD/svg11.dtd">
<!-- Creator: CorelDRAW X8 -->
<svg xmlns="http://www.w3.org/2000/svg" xml:space="preserve" width="1080px" height="1080px" version="1.1" style="shape-rendering:geometricPrecision; text-rendering:geometricPrecision; image-rendering:optimizeQuality; fill-rule:evenodd; clip-rule:evenodd"
viewBox="0 0 1080 1080"
 xmlns:xlink="http://www.w3.org/1999/xlink">
 <defs>
  <style type="text/css">
   <![CDATA[
    .str0 {stroke:#727271;stroke-width:2.36221}
    .fil12 {fill:none}
    .fil2 {fill:#434242}
    .fil24 {fill:#B2B3B3}
    .fil35 {fill:#D9DADA}
    .fil1 {fill:#EBECEC}
    .fil13 {fill:#FFEA8F}
    .fil26 {fill:url(#id0)}
    .fil8 {fill:url(#id1)}
    .fil9 {fill:url(#id2)}
    .fil11 {fill:url(#id3)}
    .fil6 {fill:url(#id4)}
    .fil10 {fill:url(#id5)}
    .fil5 {fill:url(#id6)}
    .fil7 {fill:url(#id7)}
    .fil4 {fill:url(#id8)}
    .fil20 {fill:url(#id9)}
    .fil21 {fill:url(#id10)}
    .fil23 {fill:url(#id11)}
    .fil18 {fill:url(#id12)}
    .fil22 {fill:url(#id13)}
    .fil17 {fill:url(#id14)}
    .fil19 {fill:url(#id15)}
    .fil16 {fill:url(#id16)}
    .fil15 {fill:url(#id17)}
    .fil3 {fill:url(#id18)}
    .fil31 {fill:url(#id19)}
    .fil32 {fill:url(#id20)}
    .fil34 {fill:url(#id21)}
    .fil29 {fill:url(#id22)}
    .fil33 {fill:url(#id23)}
    .fil28 {fill:url(#id24)}
    .fil30 {fill:url(#id25)}
    .fil27 {fill:url(#id26)}
    .fil25 {fill:url(#id27)}
    .fil0 {fill:url(#id28)}
    .fil14 {fill:url(#id29)}
   ]]>
  </style>
  <linearGradient id="id0" gradientUnits="userSpaceOnUse" x1="522.325" y1="857.461" x2="557.675" y2="857.461">
   <stop offset="0" style="stop-opacity:1; stop-color:#2B2A29"/>
   <stop offset="0.0588235" style="stop-opacity:1; stop-color:#626767"/>
   <stop offset="0.121569" style="stop-opacity:1; stop-color:#B5B1B4"/>
   <stop offset="0.188235" style="stop-opacity:1; stop-color:#E5E5E5"/>
   <stop offset="0.239216" style="stop-opacity:1; stop-color:white"/>
   <stop offset="0.4" style="stop-opacity:1; stop-color:#C8CECB"/>
   <stop offset="0.619608" style="stop-opacity:1; stop-color:#9F9A9E"/>
   <stop offset="0.780392" style="stop-opacity:1; stop-color:#666467"/>
   <stop offset="1" style="stop-opacity:1; stop-color:#2B2A29"/>
  </linearGradient>
  <linearGradient id="id1" gradientUnits="userSpaceOnUse" x1="109.036" y1="772.525" x2="245.861" y2="772.525">
   <stop offset="0" style="stop-opacity:1; stop-color:#623620"/>
   <stop offset="0.121569" style="stop-opacity:1; stop-color:#CC9E20"/>
   <stop offset="0.239216" style="stop-opacity:1; stop-color:white"/>
   <stop offset="0.521569" style="stop-opacity:1; stop-color:#CF9A30"/>
   <stop offset="1" style="stop-opacity:1; stop-color:#662D29"/>
  </linearGradient>
  <linearGradient id="id2" gradientUnits="userSpaceOnUse" xlink:href="#id1" x1="109.036" y1="743.243" x2="245.861" y2="743.243">
  </linearGradient>
  <linearGradient id="id3" gradientUnits="userSpaceOnUse" xlink:href="#id0" x1="109.036" y1="816.448" x2="245.861" y2="816.448">
  </linearGradient>
  <linearGradient id="id4" gradientUnits="userSpaceOnUse" xlink:href="#id1" x1="109.036" y1="801.807" x2="245.861" y2="801.807">
  </linearGradient>
  <linearGradient id="id5" gradientUnits="userSpaceOnUse" xlink:href="#id1" x1="109.036" y1="757.884" x2="245.861" y2="757.884">
  </linearGradient>
  <linearGradient id="id6" gradientUnits="userSpaceOnUse" xlink:href="#id1" x1="109.036" y1="787.166" x2="245.861" y2="787.166">
  </linearGradient>
  <linearGradient id="id7" gradientUnits="userSpaceOnUse" xlink:href="#id1" x1="109.036" y1="728.602" x2="245.861" y2="728.602">
  </linearGradient>
  <linearGradient id="id8" gradientUnits="userSpaceOnUse" xlink:href="#id0" x1="109.036" y1="713.961" x2="245.861" y2="713.961">
  </linearGradient>
  <linearGradient id="id9" gradientUnits="userSpaceOnUse" xlink:href="#id1" x1="834.14" y1="772.525" x2="970.964" y2="772.525">
  </linearGradient>
  <linearGradient id="id10" gradientUnits="userSpaceOnUse" xlink:href="#id1" x1="834.14" y1="743.243" x2="970.964" y2="743.243">
  </linearGradient>
  <linearGradient id="id11" gradientUnits="userSpaceOnUse" xlink:href="#id0" x1="834.14" y1="816.448" x2="970.964" y2="816.448">
  </linearGradient>
  <linearGradient id="id12" gradientUnits="userSpaceOnUse" xlink:href="#id1" x1="834.14" y1="801.807" x2="970.964" y2="801.807">
  </linearGradient>
  <linearGradient id="id13" gradientUnits="userSpaceOnUse" xlink:href="#id1" x1="834.14" y1="757.884" x2="970.964" y2="757.884">
  </linearGradient>
  <linearGradient id="id14" gradientUnits="userSpaceOnUse" xlink:href="#id1" x1="834.14" y1="787.166" x2="970.964" y2="787.166">
  </linearGradient>
  <linearGradient id="id15" gradientUnits="userSpaceOnUse" xlink:href="#id1" x1="834.14" y1="728.602" x2="970.964" y2="728.602">
  </linearGradient>
  <linearGradient id="id16" gradientUnits="userSpaceOnUse" xlink:href="#id0" x1="834.14" y1="713.961" x2="970.964" y2="713.961">
  </linearGradient>
  <linearGradient id="id17" gradientUnits="userSpaceOnUse" xlink:href="#id0" x1="884.852" y1="857.461" x2="920.252" y2="857.461">
  </linearGradient>
  <linearGradient id="id18" gradientUnits="userSpaceOnUse" xlink:href="#id0" x1="159.748" y1="857.461" x2="195.148" y2="857.461">
  </linearGradient>
  <linearGradient id="id19" gradientUnits="userSpaceOnUse" xlink:href="#id1" x1="471.563" y1="772.525" x2="608.39" y2="772.525">
  </linearGradient>
  <linearGradient id="id20" gradientUnits="userSpaceOnUse" xlink:href="#id1" x1="471.563" y1="743.243" x2="608.39" y2="743.243">
  </linearGradient>
  <linearGradient id="id21" gradientUnits="userSpaceOnUse" xlink:href="#id0" x1="471.563" y1="816.448" x2="608.39" y2="816.448">
  </linearGradient>
  <linearGradient id="id22" gradientUnits="userSpaceOnUse" xlink:href="#id1" x1="471.563" y1="801.807" x2="608.39" y2="801.807">
  </linearGradient>
  <linearGradient id="id23" gradientUnits="userSpaceOnUse" xlink:href="#id1" x1="471.563" y1="757.884" x2="608.39" y2="757.884">
  </linearGradient>
  <linearGradient id="id24" gradientUnits="userSpaceOnUse" xlink:href="#id1" x1="471.563" y1="787.166" x2="608.39" y2="787.166">
  </linearGradient>
  <linearGradient id="id25" gradientUnits="userSpaceOnUse" xlink:href="#id1" x1="471.563" y1="728.602" x2="608.39" y2="728.602">
  </linearGradient>
  <linearGradient id="id26" gradientUnits="userSpaceOnUse" xlink:href="#id0" x1="471.563" y1="713.961" x2="608.39" y2="713.961">
  </linearGradient>
  <radialGradient id="id27" gradientUnits="userSpaceOnUse" gradientTransform="matrix(0.716311 -0 -0 0.716314 153 90)" cx="540" cy="316.162" r="607.442" fx="540" fy="316.162">
   <stop offset="0" style="stop-opacity:1; stop-color:#EBECEC"/>
   <stop offset="1" style="stop-opacity:1; stop-color:#B2B3B3"/>
  </radialGradient>
  <radialGradient id="id28" gradientUnits="userSpaceOnUse" gradientTransform="matrix(0.716408 -0 -0 0.716411 50 90)" cx="177.448" cy="316.162" r="607.442" fx="177.448" fy="316.162">
   <stop offset="0" style="stop-opacity:1; stop-color:#FBED7F"/>
   <stop offset="1" style="stop-opacity:1; stop-color:#E4B706"/>
  </radialGradient>
  <radialGradient id="id29" gradientUnits="userSpaceOnUse" gradientTransform="matrix(0.71641 -0 -0 0.716411 256 90)" xlink:href="#id28" cx="902.552" cy="316.162" r="607.442" fx="902.552" fy="316.162">
  </radialGradient>
 </defs>
 <g id="Camada_x0020_1">
  <metadata id="CorelCorpID_0Corel-Layer"/>
  <path class="fil0" d="M177 217c98,0 178,83 178,186 0,112 -81,117 -115,309l-126 0c-42,-196 -114,-197 -114,-309 0,-103 79,-186 177,-186z"/>
  <path class="fil1" d="M79 309c-28,35 -33,63 -48,60 -15,-2 0,-52 23,-79 23,-27 60,-46 73,-39 13,6 -19,24 -48,58z"/>
  <path class="fil2" d="M115 707l124 0 0 114 -57 40c-3,2 -6,3 -9,0l-58 -40 0 -114z"/>
  <path class="fil3" d="M195 852l-13 9c-3,2 -6,3 -9,0l-13 -9 35 0z"/>
  <path class="fil4" d="M115 707l124 0c4,0 7,3 7,6l0 1c0,4 -3,7 -7,7l-124 0c-3,0 -6,-3 -6,-7l0 -1c0,-3 3,-6 6,-6z"/>
  <path class="fil5" d="M115 780l124 0c4,0 7,3 7,7l0 1c0,3 -3,6 -7,6l-124 0c-3,0 -6,-3 -6,-6l0 -1c0,-4 3,-7 6,-7z"/>
  <path class="fil6" d="M115 795l124 0c4,0 7,3 7,6l0 1c0,4 -3,7 -7,7l-124 0c-3,0 -6,-3 -6,-7l0 -1c0,-3 3,-6 6,-6z"/>
  <path class="fil7" d="M115 722l124 0c4,0 7,3 7,6l0 1c0,4 -3,7 -7,7l-124 0c-3,0 -6,-3 -6,-7l0 -1c0,-3 3,-6 6,-6z"/>
  <path class="fil8" d="M115 766l124 0c4,0 7,2 7,6l0 1c0,4 -3,7 -7,7l-124 0c-3,0 -6,-3 -6,-7l0 -1c0,-4 3,-6 6,-6z"/>
  <path class="fil9" d="M115 736l124 0c4,0 7,3 7,7l0 1c0,3 -3,6 -7,6l-124 0c-3,0 -6,-3 -6,-6l0 -1c0,-4 3,-7 6,-7z"/>
  <path class="fil10" d="M115 751l124 0c4,0 7,3 7,6l0 1c0,4 -3,7 -7,7l-124 0c-3,0 -6,-3 -6,-7l0 -1c0,-3 3,-6 6,-6z"/>
  <path class="fil11" d="M115 809l124 0c4,0 7,3 7,7l0 1c0,4 -3,6 -7,6l-124 0c-3,0 -6,-2 -6,-6l0 -1c0,-4 3,-7 6,-7z"/>
  <path class="fil12" d="M115 735l124 0c4,0 7,3 7,6l0 1c0,4 -3,7 -7,7l-124 0c-3,0 -6,-3 -6,-7l0 -1c0,-3 3,-6 6,-6z"/>
  <path class="fil12" d="M115 749l124 0c4,0 7,3 7,6l0 1c0,4 -3,7 -7,7l-124 0c-3,0 -6,-3 -6,-7l0 -1c0,-3 3,-6 6,-6z"/>
  <path class="fil13" d="M111 648c-7,-26 -18,-37 -13,-44 6,-6 23,17 29,38 5,20 3,45 -3,49 -7,5 -6,-17 -13,-43z"/>
  <path class="fil14" d="M903 217c98,0 177,83 177,186 0,112 -81,117 -115,309l-126 0c-42,-196 -114,-197 -114,-309 0,-103 80,-186 178,-186z"/>
  <path class="fil1" d="M805 309c-29,35 -34,63 -49,60 -15,-2 1,-52 23,-79 23,-27 60,-46 73,-39 13,6 -19,24 -47,58z"/>
  <path class="fil2" d="M841 707l124 0 0 114 -58 40c-3,2 -6,3 -9,0l-57 -40 0 -114z"/>
  <path class="fil15" d="M920 852l-13 9c-3,2 -6,3 -9,0l-13 -9 35 0z"/>
  <path class="fil16" d="M841 707l124 0c3,0 6,3 6,6l0 1c0,4 -3,7 -6,7l-124 0c-4,0 -7,-3 -7,-7l0 -1c0,-3 3,-6 7,-6z"/>
  <path class="fil17" d="M841 780l124 0c3,0 6,3 6,7l0 1c0,3 -3,6 -6,6l-124 0c-4,0 -7,-3 -7,-6l0 -1c0,-4 3,-7 7,-7z"/>
  <path class="fil18" d="M841 795l124 0c3,0 6,3 6,6l0 1c0,4 -3,7 -6,7l-124 0c-4,0 -7,-3 -7,-7l0 -1c0,-3 3,-6 7,-6z"/>
  <path class="fil19" d="M841 722l124 0c3,0 6,3 6,6l0 1c0,4 -3,7 -6,7l-124 0c-4,0 -7,-3 -7,-7l0 -1c0,-3 3,-6 7,-6z"/>
  <path class="fil20" d="M841 766l124 0c3,0 6,2 6,6l0 1c0,4 -3,7 -6,7l-124 0c-4,0 -7,-3 -7,-7l0 -1c0,-4 3,-6 7,-6z"/>
  <path class="fil21" d="M841 736l124 0c3,0 6,3 6,7l0 1c0,3 -3,6 -6,6l-124 0c-4,0 -7,-3 -7,-6l0 -1c0,-4 3,-7 7,-7z"/>
  <path class="fil22" d="M841 751l124 0c3,0 6,3 6,6l0 1c0,4 -3,7 -6,7l-124 0c-4,0 -7,-3 -7,-7l0 -1c0,-3 3,-6 7,-6z"/>
  <path class="fil23" d="M841 809l124 0c3,0 6,3 6,7l0 1c0,4 -3,6 -6,6l-124 0c-4,0 -7,-2 -7,-6l0 -1c0,-4 3,-7 7,-7z"/>
  <path class="fil12" d="M841 735l124 0c3,0 6,3 6,6l0 1c0,4 -3,7 -6,7l-124 0c-4,0 -7,-3 -7,-7l0 -1c0,-3 3,-6 7,-6z"/>
  <path class="fil12" d="M841 749l124 0c3,0 6,3 6,6l0 1c0,4 -3,7 -6,7l-124 0c-4,0 -7,-3 -7,-7l0 -1c0,-3 3,-6 7,-6z"/>
  <path class="fil13" d="M836 648c-7,-26 -18,-37 -13,-44 6,-6 23,17 29,38 5,20 3,45 -3,49 -7,5 -6,-17 -13,-43z"/>
  <path class="fil24" d="M540 217c98,0 177,83 177,186 0,112 -80,117 -114,309l-126 0c-42,-196 -114,-197 -114,-309 0,-103 79,-186 177,-186z"/>
  <path class="fil25" d="M540 217c27,0 52,6 74,17l-55 71 32 27 -22 17 41 30 21 -32 59 -7 -23 -22 -51 -32 1 -50c60,30 100,94 100,167 0,112 -80,117 -114,309l-126 0c-42,-196 -114,-197 -114,-309 0,-103 79,-186 177,-186z"/>
  <path class="fil1" d="M442 309c-29,35 -33,63 -48,60 -15,-2 0,-52 23,-79 22,-27 60,-46 73,-39 13,6 -19,24 -48,58z"/>
  <path class="fil2" d="M478 707l124 0 0 114 -57 40c-4,2 -6,3 -9,0l-58 -40 0 -114z"/>
  <path class="fil26" d="M558 852l-13 9c-4,2 -6,3 -9,0l-14 -9 36 0z"/>
  <path class="fil27" d="M478 707l124 0c3,0 6,3 6,6l0 1c0,4 -3,7 -6,7l-124 0c-4,0 -6,-3 -6,-7l0 -1c0,-3 2,-6 6,-6z"/>
  <path class="fil28" d="M478 780l124 0c3,0 6,3 6,7l0 1c0,3 -3,6 -6,6l-124 0c-4,0 -6,-3 -6,-6l0 -1c0,-4 2,-7 6,-7z"/>
  <path class="fil29" d="M478 795l124 0c3,0 6,3 6,6l0 1c0,4 -3,7 -6,7l-124 0c-4,0 -6,-3 -6,-7l0 -1c0,-3 2,-6 6,-6z"/>
  <path class="fil30" d="M478 722l124 0c3,0 6,3 6,6l0 1c0,4 -3,7 -6,7l-124 0c-4,0 -6,-3 -6,-7l0 -1c0,-3 2,-6 6,-6z"/>
  <path class="fil31" d="M478 766l124 0c3,0 6,2 6,6l0 1c0,4 -3,7 -6,7l-124 0c-4,0 -6,-3 -6,-7l0 -1c0,-4 2,-6 6,-6z"/>
  <path class="fil32" d="M478 736l124 0c3,0 6,3 6,7l0 1c0,3 -3,6 -6,6l-124 0c-4,0 -6,-3 -6,-6l0 -1c0,-4 2,-7 6,-7z"/>
  <path class="fil33" d="M478 751l124 0c3,0 6,3 6,6l0 1c0,4 -3,7 -6,7l-124 0c-4,0 -6,-3 -6,-7l0 -1c0,-3 2,-6 6,-6z"/>
  <path class="fil34" d="M478 809l124 0c3,0 6,3 6,7l0 1c0,4 -3,6 -6,6l-124 0c-4,0 -6,-2 -6,-6l0 -1c0,-4 2,-7 6,-7z"/>
  <path class="fil12" d="M478 735l124 0c3,0 6,3 6,6l0 1c0,4 -3,7 -6,7l-124 0c-4,0 -6,-3 -6,-7l0 -1c0,-3 2,-6 6,-6z"/>
  <path class="fil12" d="M478 749l124 0c3,0 6,3 6,6l0 1c0,4 -3,7 -6,7l-124 0c-4,0 -6,-3 -6,-7l0 -1c0,-3 2,-6 6,-6z"/>
  <path class="fil35" d="M474 648c-7,-26 -18,-37 -13,-44 5,-6 23,17 28,38 6,20 4,45 -3,49 -6,5 -5,-17 -12,-43z"/>
  <polyline class="fil12 str0" points="616,286 624,280 646,290 658,276 672,279 "/>
  <polyline class="fil12 str0" points="689,340 696,338 687,324 699,320 "/>
  <polyline class="fil12 str0" points="630,347 645,362 640,389 675,406 684,428 "/>
  <polyline class="fil12 str0" points="610,378 603,388 622,414 590,417 576,443 589,461 "/>
  <polyline class="fil12 str0" points="569,349 546,340 514,367 503,408 481,393 "/>
  <polyline class="fil12 str0" points="560,305 554,290 522,287 540,263 558,256 545,232 562,218 "/>
 </g>
</svg>
