<?xml version="1.0" encoding="UTF-8"?>
<!DOCTYPE svg PUBLIC "-//W3C//DTD SVG 1.1//EN" "http://www.w3.org/Graphics/SVG/1.1/DTD/svg11.dtd">
<!-- Creator: CorelDRAW X8 -->
<svg xmlns="http://www.w3.org/2000/svg" xml:space="preserve" width="980722px" height="123472px" version="1.1" style="shape-rendering:geometricPrecision; text-rendering:geometricPrecision; image-rendering:optimizeQuality; fill-rule:evenodd; clip-rule:evenodd"
viewBox="0 0 1004619 126406"
 xmlns:xlink="http://www.w3.org/1999/xlink">
 <defs>
  <style type="text/css">
   <![CDATA[
    .fil0 {fill:white;fill-rule:nonzero}
   ]]>
  </style>
 </defs>
 <g id="Camada_x0020_1">
  <metadata id="CorelCorpID_0Corel-Layer"/>
  <path class="fil0" d="M0 28648l62613 0 0 21265 -37213 0 0 18311 31896 0 0 21265 -31896 0 0 35145 -25400 0 0 -95986zm87126 97758c-4430,0 -8344,-1033 -11740,-3101 -3396,-2067 -5980,-4824 -7753,-8269 -1772,-3446 -2658,-7236 -2658,-11371 0,-7777 3175,-13832 9525,-18163 6350,-4332 16564,-7236 30642,-8713 -295,-2658 -1280,-4602 -2954,-5833 -1673,-1231 -4134,-1846 -7383,-1846 -2560,0 -5316,492 -8270,1477 -2953,984 -6399,2560 -10337,4725l-8860 -16539c10829,-6497 21659,-9746 32488,-9746 20477,0 30715,11518 30715,34555l0 41052 -20674 0 -1772 -7088 -590 0c-6596,5907 -13389,8860 -20379,8860zm8860 -19492c1871,0 3471,-419 4800,-1255 1329,-837 2781,-2092 4356,-3766l0 -10042c-10632,1575 -15949,4824 -15949,9747 0,1673 591,2978 1772,3913 1182,935 2855,1403 5021,1403zm70587 19492c-8171,0 -14004,-2412 -17499,-7235 -3495,-4824 -5243,-11666 -5243,-20527l0 -76789 25400 0 0 77675c0,2265 419,3914 1255,4947 837,1034 1797,1551 2880,1551 984,0 1870,-99 2658,-295l2953 18606c-3052,1378 -7186,2067 -12404,2067zm37213 0c-4430,0 -8344,-1033 -11740,-3101 -3397,-2067 -5981,-4824 -7753,-8269 -1772,-3446 -2658,-7236 -2658,-11371 0,-7777 3175,-13832 9525,-18163 6350,-4332 16564,-7236 30642,-8713 -296,-2658 -1280,-4602 -2954,-5833 -1673,-1231 -4134,-1846 -7383,-1846 -2560,0 -5317,492 -8270,1477 -2953,984 -6399,2560 -10337,4725l-8860 -16539c10829,-6497 21658,-9746 32488,-9746 20477,0 30715,11518 30715,34555l0 41052 -20674 0 -1772 -7088 -591 0c-6595,5907 -13389,8860 -20378,8860zm8860 -19492c1870,0 3470,-419 4799,-1255 1330,-837 2782,-2092 4357,-3766l0 -10042c-10633,1575 -15949,4824 -15949,9747 0,1673 591,2978 1772,3913 1182,935 2855,1403 5021,1403zm-3249 -79152l23332 -27762 17130 16834 -28057 23332 -12405 -12404zm84468 98644c-7088,0 -13438,-1550 -19049,-4651 -5612,-3101 -10042,-7556 -13291,-13364 -3249,-5809 -4873,-12700 -4873,-20674 0,-7876 1797,-14743 5390,-20600 3593,-5858 8417,-10338 14472,-13439 6054,-3101 12626,-4651 19714,-4651 8269,0 15456,2559 21560,7679l-11814 16243c-2855,-2362 -5611,-3543 -8270,-3543 -4725,0 -8417,1648 -11075,4946 -2658,3298 -3987,7753 -3987,13365 0,5513 1354,9943 4061,13290 2707,3347 6079,5021 10115,5021 3643,0 7581,-1575 11814,-4726l9747 16540c-3446,3051 -7310,5242 -11593,6571 -4282,1329 -8589,1993 -12921,1993zm33078 -75607l25400 0 0 73835 -25400 0 0 -73835zm12700 -9156c-3938,0 -7187,-1181 -9746,-3544 -2560,-2363 -3840,-5414 -3840,-9155 0,-3741 1280,-6793 3840,-9156 2559,-2363 5808,-3544 9746,-3544 3938,0 7187,1181 9746,3544 2560,2363 3840,5415 3840,9156 0,3741 -1280,6792 -3840,9155 -2559,2363 -5808,3544 -9746,3544zm45778 84763c-4430,0 -8344,-1033 -11740,-3101 -3396,-2067 -5981,-4824 -7753,-8269 -1772,-3446 -2658,-7236 -2658,-11371 0,-7777 3175,-13832 9525,-18163 6350,-4332 16564,-7236 30642,-8713 -296,-2658 -1280,-4602 -2954,-5833 -1673,-1231 -4134,-1846 -7383,-1846 -2560,0 -5316,492 -8270,1477 -2953,984 -6399,2560 -10337,4725l-8860 -16539c10829,-6497 21658,-9746 32488,-9746 20477,0 30715,11518 30715,34555l0 41052 -20674 0 -1772 -7088 -590 0c-6596,5907 -13389,8860 -20379,8860zm8860 -19492c1871,0 3471,-419 4799,-1255 1330,-837 2782,-2092 4357,-3766l0 -10042c-10632,1575 -15949,4824 -15949,9747 0,1673 591,2978 1772,3913 1182,935 2855,1403 5021,1403zm70587 19492c-4726,0 -9722,-959 -14989,-2879 -5267,-1920 -9820,-4406 -13659,-7457l11223 -15654c6694,4923 12699,7384 18015,7384 2659,0 4554,-369 5686,-1108 1132,-738 1698,-1845 1698,-3322 0,-1477 -788,-2658 -2363,-3544 -1575,-886 -4282,-2068 -8122,-3545 -492,-196 -1033,-418 -1624,-664 -591,-246 -1280,-517 -2067,-812 -12405,-4922 -18607,-12208 -18607,-21856 0,-7186 2683,-12970 8048,-17351 5366,-4381 12429,-6571 21191,-6571 5513,0 10435,886 14767,2658 4332,1772 8466,4135 12405,7088l-11223 15062c-5711,-4134 -10731,-6202 -15063,-6202 -4332,0 -6498,1379 -6498,4135 0,1477 788,2633 2363,3470 1575,837 4234,1945 7975,3323 787,197 1968,591 3543,1181 5514,2068 10042,4775 13586,8122 3544,3348 5317,8024 5317,14029 0,7187 -2757,13069 -8270,17647 -5513,4578 -13290,6866 -23332,6866z"/>
  <path class="fil0" d="M508148 27171l51980 0 0 4135 -47254 0 0 41053 39871 0 0 4135 -39871 0 0 48140 -4726 0 0 -97463zm69110 99235c-5907,0 -10780,-1575 -14619,-4725 -3840,-3150 -5759,-7925 -5759,-14324 0,-7777 3667,-13733 11001,-17868 7334,-4135 19123,-7088 35367,-8860 197,-6892 -984,-12651 -3544,-17278 -2559,-4627 -7186,-6941 -13881,-6941 -4528,0 -8786,862 -12774,2585 -3987,1722 -7408,3716 -10263,5980l-2362 -3544c3150,-2363 6965,-4479 11444,-6350 4480,-1870 9230,-2805 14250,-2805 7679,0 13192,2436 16540,7309 3347,4873 5020,11297 5020,19271l0 45778 -3839 0 -591 -9450 -295 0c-9353,7482 -17917,11222 -25695,11222zm296 -4134c4134,0 8220,-985 12256,-2954 4036,-1969 8516,-5021 13438,-9155l0 -25695c-15161,1772 -25891,4455 -32192,8048 -6301,3593 -9451,8491 -9451,14693 0,5120 1501,8910 4504,11371 3003,2461 6818,3692 11445,3692zm53161 4134c-4725,0 -7088,-3150 -7088,-9450l0 -98940 4430 0 0 99826c0,1476 271,2584 812,3322 542,739 1255,1108 2141,1108 788,0 1674,-99 2659,-296l886 3840c-1576,394 -2855,590 -3840,590zm31602 0c-5907,0 -10780,-1575 -14619,-4725 -3840,-3150 -5760,-7925 -5760,-14324 0,-7777 3667,-13733 11002,-17868 7334,-4135 19123,-7088 35367,-8860 197,-6892 -985,-12651 -3544,-17278 -2560,-4627 -7187,-6941 -13881,-6941 -4529,0 -8787,862 -12774,2585 -3987,1722 -7408,3716 -10263,5980l-2363 -3544c3151,-2363 6965,-4479 11445,-6350 4479,-1870 9229,-2805 14250,-2805 7679,0 13192,2436 16539,7309 3347,4873 5021,11297 5021,19271l0 45778 -3839 0 -591 -9450 -295 0c-9353,7482 -17918,11222 -25695,11222zm295 -4134c4135,0 8221,-985 12257,-2954 4036,-1969 8516,-5021 13438,-9155l0 -25695c-15161,1772 -25892,4455 -32192,8048 -6301,3593 -9451,8491 -9451,14693 0,5120 1501,8910 4504,11371 3002,2461 6817,3692 11444,3692zm71473 4134c-6005,0 -11420,-1476 -16244,-4430 -4824,-2953 -8589,-7211 -11297,-12773 -2707,-5562 -4060,-12134 -4060,-19714 0,-7581 1427,-14201 4282,-19862 2855,-5661 6694,-9968 11518,-12921 4824,-2954 10091,-4430 15801,-4430 4430,0 8270,812 11518,2436 3249,1625 6301,3766 9156,6424l-2953 3249c-5710,-5317 -11617,-7975 -17721,-7975 -5021,0 -9574,1403 -13660,4209 -4085,2806 -7309,6719 -9672,11740 -2363,5021 -3544,10731 -3544,17130 0,6399 1107,12084 3323,17056 2215,4971 5365,8835 9450,11592 4086,2756 8787,4135 14103,4135 7088,0 13684,-2855 19788,-8565l2658 3249c-6990,6300 -14472,9450 -22446,9450zm30125 -72358l4430 0 0 70586 -4430 0 0 -70586zm2363 -18016c-1379,0 -2511,-493 -3397,-1477 -886,-984 -1329,-2264 -1329,-3839 0,-1477 443,-2683 1329,-3619 886,-935 2018,-1402 3397,-1402 1378,0 2510,467 3396,1402 886,936 1329,2142 1329,3619 0,1575 -443,2855 -1329,3839 -886,984 -2018,1477 -3396,1477zm45187 90374c-5710,0 -10952,-1476 -15727,-4430 -4775,-2953 -8565,-7236 -11370,-12847 -2806,-5612 -4209,-12158 -4209,-19640 0,-7581 1403,-14201 4209,-19862 2805,-5661 6595,-9968 11370,-12921 4775,-2954 10017,-4430 15727,-4430 5710,0 10952,1476 15727,4430 4775,2953 8565,7260 11371,12921 2806,5661 4208,12281 4208,19862 0,7482 -1402,14028 -4208,19640 -2806,5611 -6596,9894 -11371,12847 -4775,2954 -10017,4430 -15727,4430zm0 -4134c5021,0 9550,-1379 13586,-4135 4036,-2757 7211,-6621 9525,-11592 2313,-4972 3470,-10657 3470,-17056 0,-6399 -1157,-12109 -3470,-17130 -2314,-5021 -5489,-8934 -9525,-11740 -4036,-2806 -8565,-4209 -13586,-4209 -5021,0 -9549,1403 -13586,4209 -4036,2806 -7211,6719 -9524,11740 -2314,5021 -3471,10731 -3471,17130 0,6399 1157,12084 3471,17056 2313,4971 5488,8835 9524,11592 4037,2756 8565,4135 13586,4135zm59659 4134c-5020,0 -9697,-886 -14028,-2658 -4332,-1772 -8221,-4134 -11667,-7088l2954 -3544c3446,2954 6941,5218 10485,6793 3544,1575 7728,2363 12552,2363 5611,0 10017,-1453 13216,-4357 3200,-2904 4800,-6472 4800,-10706 0,-4233 -1600,-7556 -4800,-9968 -3199,-2412 -7506,-4602 -12921,-6571 -5021,-1772 -9033,-3372 -12035,-4799 -3003,-1428 -5587,-3397 -7753,-5907 -2166,-2510 -3249,-5636 -3249,-9377 0,-5120 1969,-9451 5907,-12995 3938,-3544 9353,-5316 16244,-5316 3446,0 6916,640 10411,1919 3495,1280 6522,3003 9082,5169l-2658 3544c-2757,-2068 -5464,-3667 -8122,-4799 -2659,-1132 -5661,-1699 -9008,-1699 -5513,0 -9747,1354 -12700,4061 -2953,2708 -4430,5981 -4430,9820 0,2658 787,4898 2363,6719 1575,1822 3470,3299 5685,4431 2215,1132 5242,2436 9082,3913 886,394 3790,1477 8712,3249 4923,1772 8639,4184 11149,7236 2511,3051 3766,6743 3766,11075 0,3544 -911,6793 -2732,9746 -1821,2954 -4479,5316 -7974,7088 -3495,1772 -7605,2658 -12331,2658zm47255 0c-5907,0 -10780,-1575 -14619,-4725 -3839,-3150 -5759,-7925 -5759,-14324 0,-7777 3667,-13733 11001,-17868 7335,-4135 19124,-7088 35367,-8860 197,-6892 -984,-12651 -3544,-17278 -2559,-4627 -7186,-6941 -13881,-6941 -4528,0 -8786,862 -12773,2585 -3987,1722 -7408,3716 -10263,5980l-2363 -3544c3150,-2363 6965,-4479 11444,-6350 4480,-1870 9230,-2805 14251,-2805 7678,0 13191,2436 16539,7309 3347,4873 5021,11297 5021,19271l0 45778 -3840 0 -591 -9450 -295 0c-9352,7482 -17917,11222 -25695,11222zm296 -4134c4134,0 8220,-985 12256,-2954 4037,-1969 8516,-5021 13438,-9155l0 -25695c-15161,1772 -25891,4455 -32192,8048 -6301,3593 -9451,8491 -9451,14693 0,5120 1502,8910 4504,11371 3003,2461 6818,3692 11445,3692zm62612 4134c-5021,0 -9697,-886 -14029,-2658 -4331,-1772 -8220,-4134 -11666,-7088l2954 -3544c3445,2954 6940,5218 10485,6793 3544,1575 7728,2363 12551,2363 5612,0 10018,-1453 13217,-4357 3200,-2904 4799,-6472 4799,-10706 0,-4233 -1599,-7556 -4799,-9968 -3199,-2412 -7506,-4602 -12921,-6571 -5021,-1772 -9033,-3372 -12035,-4799 -3003,-1428 -5587,-3397 -7753,-5907 -2166,-2510 -3249,-5636 -3249,-9377 0,-5120 1969,-9451 5907,-12995 3938,-3544 9352,-5316 16244,-5316 3445,0 6916,640 10411,1919 3494,1280 6522,3003 9082,5169l-2659 3544c-2756,-2068 -5463,-3667 -8122,-4799 -2658,-1132 -5660,-1699 -9008,-1699 -5513,0 -9746,1354 -12699,4061 -2954,2708 -4430,5981 -4430,9820 0,2658 787,4898 2363,6719 1574,1822 3470,3299 5685,4431 2215,1132 5242,2436 9081,3913 886,394 3791,1477 8713,3249 4922,1772 8639,4184 11149,7236 2511,3051 3766,6743 3766,11075 0,3544 -911,6793 -2732,9746 -1821,2954 -4479,5316 -7974,7088 -3495,1772 -7605,2658 -12331,2658z"/>
 </g>
</svg>
